<svg width="473" height="149" viewBox="0 0 473 149" fill="none" xmlns="http://www.w3.org/2000/svg">
<rect y="11.9888" width="21.7627" height="61.94" fill="#1935DA"/>
<rect x="23.437" y="11.9888" width="21.7627" height="61.94" fill="#1935DA"/>
<rect x="26.7847" y="15.3369" width="15.0665" height="5.02216" fill="#FFDA27"/>
<rect x="3.34814" y="15.3369" width="15.0665" height="5.02216" fill="#FFDA27"/>
<rect x="26.7847" y="65.5586" width="15.0665" height="5.02216" fill="#FFDA27"/>
<rect x="43.8237" y="23.0928" width="21.7627" height="61.94" transform="rotate(-36.9853 43.8237 23.0928)" fill="#1935DA"/>
<rect x="48.5127" y="23.7534" width="15.0665" height="5.02216" transform="rotate(-36.9853 48.5127 23.7534)" fill="#FFDA27"/>
<rect x="78.7261" y="63.8691" width="15.0665" height="5.02216" transform="rotate(-36.9853 78.7261 63.8691)" fill="#FFDA27"/>
<rect x="3.34814" y="65.5586" width="15.0665" height="5.02216" fill="#FFDA27"/>
<path d="M121.172 18.936L120.056 18.9L119.012 14.58C117.62 14.34 116.576 14.22 115.88 14.22C114.512 14.22 112.976 14.496 111.272 15.048C110.768 15.984 110.372 17.184 110.084 18.648C109.796 20.112 109.652 21.492 109.652 22.788C109.652 29.412 111.56 32.724 115.376 32.724C117.008 32.724 118.304 32.484 119.264 32.004L120.02 27.612C121.532 27.612 122.684 27.696 123.476 27.864C123.86 30.48 124.052 32.604 124.052 34.236C123.476 34.668 122.312 35.148 120.56 35.676C118.832 36.204 117.128 36.468 115.448 36.468C108.296 36.468 104.72 32.052 104.72 23.22C104.72 19.02 105.584 15.828 107.312 13.644C109.064 11.46 111.848 10.368 115.664 10.368C117.56 10.368 119.24 10.644 120.704 11.196C122 11.676 123.104 12.204 124.016 12.78C124.016 14.412 123.836 16.38 123.476 18.684C122.804 18.852 122.036 18.936 121.172 18.936ZM143.954 11.196L143.99 11.556C143.99 12.54 143.834 13.38 143.522 14.076C143.21 14.316 142.718 14.508 142.046 14.652L148.058 32.436L151.478 32.868C151.478 33.852 151.202 34.896 150.65 36H141.902L141.578 34.02C142.586 33.636 143.246 33.384 143.558 33.264L142.118 29.196H134.018C133.298 31.332 132.914 32.448 132.866 32.544L135.35 32.868C135.35 33.372 135.254 33.96 135.062 34.632C134.87 35.28 134.69 35.736 134.522 36H125.774L125.45 34.02C126.53 33.564 127.502 33.228 128.366 33.012L134.414 14.508C132.806 14.268 131.594 13.956 130.778 13.572C130.778 12.876 130.886 12.264 131.102 11.736C131.606 11.568 132.782 11.376 134.63 11.16C136.502 10.92 138.278 10.8 139.958 10.8C141.662 10.8 142.994 10.932 143.954 11.196ZM139.31 21.096L138.266 16.344H137.906L136.754 21.312L135.062 25.812H141.074L139.31 21.096ZM163.259 10.8C166.307 10.8 168.575 11.328 170.063 12.384C171.551 13.44 172.295 15.36 172.295 18.144C172.295 20.472 171.575 22.416 170.135 23.976C168.695 25.512 166.391 26.28 163.223 26.28C162.191 26.28 161.375 26.268 160.775 26.244L160.703 32.58L163.331 32.868C163.331 33.924 163.055 34.968 162.503 36H153.611L153.287 34.02C154.535 33.516 155.543 33.168 156.311 32.976C156.311 32.904 156.203 26.556 155.987 13.932C155.603 13.836 154.607 13.524 152.999 12.996L153.287 10.8H163.259ZM162.467 22.86C164.075 22.836 165.323 22.392 166.211 21.528C167.099 20.664 167.543 19.548 167.543 18.18C167.543 16.812 167.147 15.84 166.355 15.264C165.587 14.664 164.375 14.364 162.719 14.364C162.071 14.364 161.459 14.376 160.883 14.4C160.835 18.192 160.811 21.024 160.811 22.896L162.467 22.86ZM183.174 32.544C185.958 32.544 187.35 31.356 187.35 28.98C187.35 27.972 186.822 27.12 185.766 26.424C184.998 25.896 183.942 25.332 182.598 24.732C181.278 24.108 180.282 23.616 179.61 23.256C178.962 22.896 178.206 22.392 177.342 21.744C175.686 20.472 174.858 18.888 174.858 16.992C174.858 15.096 175.59 13.524 177.054 12.276C178.542 11.004 180.546 10.368 183.066 10.368C185.586 10.368 188.274 11.172 191.13 12.78C191.13 14.508 190.95 16.38 190.59 18.396C189.822 18.636 188.682 18.756 187.17 18.756L186.126 14.472C185.238 14.208 184.266 14.076 183.21 14.076C182.154 14.076 181.338 14.304 180.762 14.76C180.186 15.216 179.898 15.9 179.898 16.812C179.898 17.7 180.342 18.504 181.23 19.224C182.142 19.92 183.234 20.568 184.506 21.168C185.778 21.744 186.654 22.152 187.134 22.392C187.614 22.632 188.226 22.992 188.97 23.472C189.714 23.952 190.278 24.408 190.662 24.84C191.646 25.992 192.138 27.276 192.138 28.692C192.138 31.188 191.31 33.108 189.654 34.452C187.998 35.796 185.838 36.468 183.174 36.468C181.758 36.468 180.198 36.228 178.494 35.748C176.814 35.244 175.386 34.608 174.21 33.84C174.258 32.376 174.45 30.396 174.786 27.9C175.746 27.708 176.898 27.612 178.242 27.612L178.998 31.932C180.318 32.34 181.71 32.544 183.174 32.544ZM194.523 17.352C194.139 15.696 193.947 14.388 193.947 13.428C193.947 12.468 193.983 11.592 194.055 10.8H214.971C215.067 11.952 215.115 12.732 215.115 13.14C215.115 14.172 214.923 15.576 214.539 17.352C213.843 17.544 212.703 17.64 211.119 17.64L210.291 14.004H207.231C207.207 14.916 207.099 21.096 206.907 32.544L209.499 32.868C209.499 33.972 209.223 35.016 208.671 36H199.923L199.599 34.02C201.255 33.396 202.299 33.048 202.731 32.976C202.731 32.88 202.587 26.568 202.299 14.04H198.735L197.943 17.568C196.527 17.568 195.387 17.496 194.523 17.352ZM227.466 32.616C231.45 32.616 233.442 29.556 233.442 23.436C233.442 17.316 231.45 14.256 227.466 14.256C225.738 14.256 224.226 14.52 222.93 15.048C221.826 17.352 221.274 20.028 221.274 23.076C221.274 26.1 221.73 28.452 222.642 30.132C223.554 31.788 225.162 32.616 227.466 32.616ZM227.466 10.368C231.474 10.368 234.294 11.424 235.926 13.536C237.558 15.624 238.374 18.828 238.374 23.148C238.374 25.86 238.026 28.176 237.33 30.096C236.634 32.016 235.458 33.552 233.802 34.704C232.146 35.856 230.034 36.432 227.466 36.432C223.554 36.432 220.71 35.34 218.934 33.156C217.182 30.972 216.306 27.792 216.306 23.616C216.306 14.784 220.026 10.368 227.466 10.368ZM264.455 14.004L264.347 36H259.739L247.859 16.632C247.763 23.664 247.703 28.968 247.679 32.544L250.163 32.868C250.163 33.852 249.887 34.896 249.335 36H240.587L240.263 34.02C241.607 33.468 242.615 33.12 243.287 32.976C243.287 32.904 243.179 26.556 242.963 13.932L239.975 12.996L240.263 10.8H249.623L260.099 29.592L259.559 13.932L256.571 12.996L256.859 10.8H266.219C266.195 10.8 266.195 10.824 266.219 10.872C266.267 10.92 266.315 11.028 266.363 11.196C266.435 11.34 266.507 11.52 266.579 11.736C266.723 12.12 266.819 12.756 266.867 13.644C265.643 13.836 264.839 13.956 264.455 14.004ZM276.124 14.4C276.124 17.136 276.1 19.488 276.052 21.456H279.724L280.084 18.972C281.308 18.972 282.496 19.272 283.648 19.872V27.072L281.272 27.18C280.696 26.316 280.36 25.56 280.264 24.912H276.016C275.968 28.272 275.944 30.804 275.944 32.508H282.1L282.892 29.376C284.38 29.376 285.508 29.448 286.276 29.592C286.636 30.96 286.816 32.208 286.816 33.336C286.816 34.44 286.78 35.328 286.708 36H268.852L268.528 34.02C270.088 33.42 271.096 33.072 271.552 32.976C271.528 31.56 271.504 29.568 271.48 27C271.384 21.24 271.3 16.884 271.228 13.932L268.24 12.996L268.528 10.8H286.204C286.276 11.448 286.312 12.264 286.312 13.248C286.312 14.208 286.132 15.552 285.772 17.28C285.028 17.52 283.9 17.64 282.388 17.64L281.56 14.4H276.124ZM316.606 11.196L316.642 11.556C316.642 12.54 316.486 13.38 316.174 14.076C315.862 14.316 315.37 14.508 314.698 14.652L320.71 32.436L324.13 32.868C324.13 33.852 323.854 34.896 323.302 36H314.554L314.23 34.02C315.238 33.636 315.898 33.384 316.21 33.264L314.77 29.196H306.67C305.95 31.332 305.566 32.448 305.518 32.544L308.002 32.868C308.002 33.372 307.906 33.96 307.714 34.632C307.522 35.28 307.342 35.736 307.174 36H298.426L298.102 34.02C299.182 33.564 300.154 33.228 301.018 33.012L307.066 14.508C305.458 14.268 304.246 13.956 303.43 13.572C303.43 12.876 303.538 12.264 303.754 11.736C304.258 11.568 305.434 11.376 307.282 11.16C309.154 10.92 310.93 10.8 312.61 10.8C314.314 10.8 315.646 10.932 316.606 11.196ZM311.962 21.096L310.918 16.344H310.558L309.406 21.312L307.714 25.812H313.726L311.962 21.096ZM334.651 10.8C338.851 10.8 341.635 11.4 343.003 12.6C344.251 13.68 344.875 15.348 344.875 17.604C344.875 21.108 343.051 23.496 339.403 24.768L344.587 32.58L347.683 32.904C347.683 33.936 347.407 34.968 346.855 36H341.635L334.579 25.236H333.427L333.319 32.58L335.947 32.868C335.947 33.852 335.671 34.896 335.119 36H326.227L325.903 34.02C327.343 33.444 328.351 33.096 328.927 32.976C328.879 30.024 328.819 26.46 328.747 22.284C328.675 18.108 328.627 15.312 328.603 13.896L325.615 12.996C325.639 12.444 325.747 11.712 325.939 10.8H334.651ZM337.495 14.652C336.751 14.484 335.755 14.4 334.507 14.4H333.499C333.451 17.712 333.427 20.196 333.427 21.852L335.191 21.816C336.607 21.792 337.723 21.504 338.539 20.952C339.379 20.376 339.799 19.272 339.799 17.64C339.799 16.008 339.031 15.012 337.495 14.652ZM365.332 18.936L364.216 18.9L363.172 14.58C361.78 14.34 360.736 14.22 360.04 14.22C358.672 14.22 357.136 14.496 355.432 15.048C354.928 15.984 354.532 17.184 354.244 18.648C353.956 20.112 353.812 21.492 353.812 22.788C353.812 29.412 355.72 32.724 359.536 32.724C361.168 32.724 362.464 32.484 363.424 32.004L364.18 27.612C365.692 27.612 366.844 27.696 367.636 27.864C368.02 30.48 368.212 32.604 368.212 34.236C367.636 34.668 366.472 35.148 364.72 35.676C362.992 36.204 361.288 36.468 359.608 36.468C352.456 36.468 348.88 32.052 348.88 23.22C348.88 19.02 349.744 15.828 351.472 13.644C353.224 11.46 356.008 10.368 359.824 10.368C361.72 10.368 363.4 10.644 364.864 11.196C366.16 11.676 367.264 12.204 368.176 12.78C368.176 14.412 367.996 16.38 367.636 18.684C366.964 18.852 366.196 18.936 365.332 18.936ZM387.862 32.976L387.718 24.48H378.286C378.238 28.08 378.214 30.768 378.214 32.544L380.698 32.868C380.698 33.852 380.422 34.896 379.87 36H371.122L370.798 34.02C372.142 33.468 373.15 33.12 373.822 32.976C373.822 32.904 373.714 26.556 373.498 13.932L370.51 12.996L370.798 10.8H380.122C380.506 11.448 380.734 12.396 380.806 13.644C379.582 13.836 378.778 13.956 378.394 14.004C378.346 17.124 378.322 19.464 378.322 21.024H387.646L387.538 13.932L384.55 12.996L384.838 10.8H394.162C394.546 11.448 394.774 12.396 394.846 13.644C393.622 13.836 392.818 13.956 392.434 14.004L392.254 32.544L394.738 32.868C394.738 33.852 394.462 34.896 393.91 36H385.162L384.838 34.02C386.182 33.468 387.19 33.12 387.862 32.976ZM407.847 10.8C407.823 10.8 407.823 10.824 407.847 10.872C407.895 10.92 407.943 11.028 407.991 11.196C408.063 11.34 408.135 11.52 408.207 11.736C408.351 12.12 408.447 12.756 408.495 13.644C407.271 13.836 406.467 13.956 406.083 14.004L405.903 32.544L408.387 32.868C408.387 33.852 408.111 34.896 407.559 36H398.811L398.487 34.02C399.831 33.468 400.839 33.12 401.511 32.976C401.487 31.56 401.451 29.568 401.403 27C401.331 21.24 401.259 16.884 401.187 13.932L398.199 12.996L398.487 10.8H407.847ZM423.323 29.268C423.755 27.78 425.363 22.68 428.147 13.968L424.943 12.996L425.231 10.8H434.555C434.987 11.664 435.215 12.612 435.239 13.644L433.007 13.968L425.843 36H421.055L413.315 13.968L410.111 12.996L410.399 10.8H419.723C420.155 11.664 420.383 12.612 420.407 13.644C419.375 13.812 418.667 13.92 418.283 13.968L423.323 29.268ZM445.155 14.4C445.155 17.136 445.131 19.488 445.083 21.456H448.755L449.115 18.972C450.339 18.972 451.527 19.272 452.679 19.872V27.072L450.303 27.18C449.727 26.316 449.391 25.56 449.295 24.912H445.047C444.999 28.272 444.975 30.804 444.975 32.508H451.131L451.923 29.376C453.411 29.376 454.539 29.448 455.307 29.592C455.667 30.96 455.847 32.208 455.847 33.336C455.847 34.44 455.811 35.328 455.739 36H437.883L437.559 34.02C439.119 33.42 440.127 33.072 440.583 32.976C440.559 31.56 440.535 29.568 440.511 27C440.415 21.24 440.331 16.884 440.259 13.932L437.271 12.996L437.559 10.8H455.235C455.307 11.448 455.343 12.264 455.343 13.248C455.343 14.208 455.163 15.552 454.803 17.28C454.059 17.52 452.931 17.64 451.419 17.64L450.591 14.4H445.155Z" fill="#0A28D8"/>
<path d="M118.532 52.708L118.56 52.988C118.56 53.7533 118.439 54.4067 118.196 54.948C117.953 55.1347 117.571 55.284 117.048 55.396L121.724 69.228L124.384 69.564C124.384 70.3293 124.169 71.1413 123.74 72H116.936L116.684 70.46C117.468 70.1613 117.981 69.9653 118.224 69.872L117.104 66.708H110.804C110.244 68.3693 109.945 69.2373 109.908 69.312L111.84 69.564C111.84 69.956 111.765 70.4133 111.616 70.936C111.467 71.44 111.327 71.7947 111.196 72H104.392L104.14 70.46C104.98 70.1053 105.736 69.844 106.408 69.676L111.112 55.284C109.861 55.0973 108.919 54.8547 108.284 54.556C108.284 54.0147 108.368 53.5387 108.536 53.128C108.928 52.9973 109.843 52.848 111.28 52.68C112.736 52.4933 114.117 52.4 115.424 52.4C116.749 52.4 117.785 52.5027 118.532 52.708ZM114.92 60.408L114.108 56.712H113.828L112.932 60.576L111.616 64.076H116.292L114.92 60.408ZM134.891 57.44C136.758 57.44 138.111 57.8973 138.951 58.812C139.791 59.7267 140.211 61.0053 140.211 62.648C140.211 64.2907 140.118 66.512 139.931 69.312L142.143 69.564C142.143 70.3293 141.929 71.1413 141.499 72H134.527L134.275 70.46C135.153 70.1053 135.965 69.8253 136.711 69.62C136.655 67.4733 136.599 65.672 136.543 64.216C136.487 62.7413 136.347 61.7427 136.123 61.22C135.899 60.6973 135.405 60.436 134.639 60.436C133.482 60.436 132.446 60.6413 131.531 61.052C131.513 61.8547 131.457 63.1707 131.363 65C131.289 66.8107 131.242 68.248 131.223 69.312L133.407 69.564C133.407 70.3293 133.193 71.1413 132.763 72H125.791L125.539 70.46C126.473 70.1053 127.313 69.8253 128.059 69.62C128.041 68.5 127.975 66.9507 127.863 64.972C127.77 62.9933 127.714 61.528 127.695 60.576C127.005 60.5013 126.267 60.3613 125.483 60.156L125.623 58.14C126.93 57.7853 128.405 57.608 130.047 57.608C130.253 57.7387 130.533 58.14 130.887 58.812C131.522 58.4947 132.297 58.1867 133.211 57.888C134.126 57.5893 134.686 57.44 134.891 57.44ZM163.759 52.708L163.787 52.988C163.787 53.7533 163.665 54.4067 163.423 54.948C163.18 55.1347 162.797 55.284 162.275 55.396L166.951 69.228L169.611 69.564C169.611 70.3293 169.396 71.1413 168.967 72H162.163L161.911 70.46C162.695 70.1613 163.208 69.9653 163.451 69.872L162.331 66.708H156.031C155.471 68.3693 155.172 69.2373 155.135 69.312L157.067 69.564C157.067 69.956 156.992 70.4133 156.843 70.936C156.693 71.44 156.553 71.7947 156.423 72H149.619L149.367 70.46C150.207 70.1053 150.963 69.844 151.635 69.676L156.339 55.284C155.088 55.0973 154.145 54.8547 153.511 54.556C153.511 54.0147 153.595 53.5387 153.763 53.128C154.155 52.9973 155.069 52.848 156.507 52.68C157.963 52.4933 159.344 52.4 160.651 52.4C161.976 52.4 163.012 52.5027 163.759 52.708ZM160.147 60.408L159.335 56.712H159.055L158.159 60.576L156.843 64.076H161.519L160.147 60.408ZM183.338 51.196C183.692 51.196 183.916 51.2053 184.01 51.224C184.01 52.1947 183.888 53.044 183.646 53.772C183.571 55.788 183.478 58.6627 183.366 62.396C183.272 66.1107 183.207 68.5653 183.17 69.76C184.271 69.9093 185.092 70.068 185.634 70.236V71.58C184.458 72.084 182.843 72.336 180.79 72.336C180.678 72.1307 180.528 71.6267 180.342 70.824C178.624 71.7573 177.383 72.2613 176.618 72.336C174.714 72.336 173.286 71.6453 172.334 70.264C171.4 68.8827 170.934 67.1093 170.934 64.944C170.934 62.76 171.41 60.9307 172.362 59.456C173.314 57.9627 174.723 57.216 176.59 57.216C177.616 57.216 178.699 57.5333 179.838 58.168L179.698 54.08C178.82 53.9867 178.083 53.8467 177.486 53.66C177.486 53.1933 177.551 52.5213 177.682 51.644C178.783 51.3453 180.668 51.196 183.338 51.196ZM177.038 59.96C175.432 59.96 174.63 61.5093 174.63 64.608C174.63 66.3813 174.947 67.716 175.582 68.612C175.936 69.1347 176.394 69.396 176.954 69.396C177.906 69.396 178.979 69.0693 180.174 68.416L179.922 61.192C178.858 60.3707 177.896 59.96 177.038 59.96ZM194.27 67.8L195.306 63.628L196.79 60.044C196.155 59.932 195.371 59.6893 194.438 59.316L194.69 57.776H201.662C202.091 58.6347 202.306 59.4467 202.306 60.212C201.578 60.324 200.85 60.3987 200.122 60.436C199.748 61.6867 199.011 63.6187 197.91 66.232C196.827 68.8453 196.099 70.768 195.726 72H192.114L187.662 60.464L185.478 60.212C185.478 59.4467 185.692 58.6347 186.122 57.776H193.094L193.346 59.316C192.58 59.6707 191.936 59.9133 191.414 60.044L192.758 63.6L193.738 67.8H194.27ZM208.405 72.336C206.819 72.336 205.587 72.0093 204.709 71.356C203.851 70.7027 203.421 69.6013 203.421 68.052C203.421 66.5773 203.935 65.3733 204.961 64.44C205.559 63.8987 206.389 63.5813 207.453 63.488C208.517 63.3947 209.983 63.348 211.849 63.348V62.9C211.849 61.7613 211.663 60.9307 211.289 60.408C210.935 59.8667 210.3 59.596 209.385 59.596C208.919 59.596 208.499 59.6893 208.125 59.876L207.453 62.312L205.381 62.256C204.915 61.5467 204.663 60.4173 204.625 58.868C204.999 58.6813 205.876 58.4013 207.257 58.028C208.639 57.636 209.525 57.44 209.917 57.44C211.933 57.44 213.399 57.86 214.313 58.7C215.228 59.5213 215.685 60.8373 215.685 62.648C215.685 64.44 215.601 66.8107 215.433 69.76C216.497 69.8533 217.319 70.012 217.897 70.236C217.916 70.46 217.925 70.7307 217.925 71.048L217.897 71.664C216.553 72.112 215.2 72.336 213.837 72.336C213.483 72.336 213.221 72.3267 213.053 72.308C212.773 71.748 212.605 71.076 212.549 70.292H212.409C212.055 70.628 211.429 71.0573 210.533 71.58C209.656 72.084 208.947 72.336 208.405 72.336ZM207.005 68.22C207.005 68.836 207.192 69.2933 207.565 69.592C207.957 69.872 208.396 70.012 208.881 70.012C209.367 70.012 209.945 69.7973 210.617 69.368C211.289 68.92 211.831 68.5187 212.241 68.164L212.101 65.588C210.627 65.6627 209.516 65.8027 208.769 66.008C207.593 66.2507 207.005 66.988 207.005 68.22ZM227.559 57.44C229.426 57.44 230.779 57.8973 231.619 58.812C232.459 59.7267 232.879 61.0053 232.879 62.648C232.879 64.2907 232.786 66.512 232.599 69.312L234.811 69.564C234.811 70.3293 234.597 71.1413 234.167 72H227.195L226.943 70.46C227.821 70.1053 228.633 69.8253 229.379 69.62C229.323 67.4733 229.267 65.672 229.211 64.216C229.155 62.7413 229.015 61.7427 228.791 61.22C228.567 60.6973 228.073 60.436 227.307 60.436C226.15 60.436 225.114 60.6413 224.199 61.052C224.181 61.8547 224.125 63.1707 224.031 65C223.957 66.8107 223.91 68.248 223.891 69.312L226.075 69.564C226.075 70.3293 225.861 71.1413 225.431 72H218.459L218.207 70.46C219.141 70.1053 219.981 69.8253 220.727 69.62C220.709 68.5 220.643 66.9507 220.531 64.972C220.438 62.9933 220.382 61.528 220.363 60.576C219.673 60.5013 218.935 60.3613 218.151 60.156L218.291 58.14C219.598 57.7853 221.073 57.608 222.715 57.608C222.921 57.7387 223.201 58.14 223.555 58.812C224.19 58.4947 224.965 58.1867 225.879 57.888C226.794 57.5893 227.354 57.44 227.559 57.44ZM243.217 59.764L242.769 59.736C241.724 59.736 240.884 60.1 240.249 60.828C239.633 61.5373 239.325 62.7413 239.325 64.44C239.325 66.12 239.558 67.3987 240.025 68.276C240.51 69.1533 241.434 69.592 242.797 69.592C243.432 69.592 244.776 69.1627 246.829 68.304C247.296 68.9573 247.548 69.6387 247.585 70.348C246.558 70.9827 245.55 71.4773 244.561 71.832C243.59 72.1867 242.9 72.364 242.489 72.364C240.193 72.364 238.476 71.7387 237.337 70.488C236.198 69.2187 235.629 67.4453 235.629 65.168C235.629 60.016 237.953 57.44 242.601 57.44C243.404 57.44 244.225 57.5427 245.065 57.748C245.924 57.9347 246.596 58.1773 247.081 58.476C247.025 60.3427 246.82 61.696 246.465 62.536C245.849 62.6853 244.981 62.76 243.861 62.76L243.217 59.764ZM256.144 69.592C256.779 69.592 258.067 69.1533 260.008 68.276C260.419 68.8733 260.727 69.564 260.932 70.348C259.905 70.9827 258.897 71.4773 257.908 71.832C256.937 72.168 256.247 72.336 255.836 72.336C253.577 72.336 251.86 71.7107 250.684 70.46C249.527 69.2093 248.948 67.436 248.948 65.14C248.948 62.8253 249.527 60.968 250.684 59.568C251.841 58.1493 253.559 57.44 255.836 57.44C257.647 57.44 259.028 58.028 259.98 59.204C260.932 60.38 261.408 61.9107 261.408 63.796C261.408 64.188 261.184 64.636 260.736 65.14L252.672 65C252.709 66.4933 252.989 67.632 253.512 68.416C254.035 69.2 254.912 69.592 256.144 69.592ZM255.584 59.764C254.875 59.764 254.212 59.904 253.596 60.184C253.167 61.08 252.896 61.9107 252.784 62.676C254.24 62.62 255.892 62.5827 257.74 62.564C257.647 60.6973 256.928 59.764 255.584 59.764ZM277.662 69.312C279.827 69.312 280.91 68.388 280.91 66.54C280.91 65.756 280.499 65.0933 279.678 64.552C279.08 64.1413 278.259 63.7027 277.214 63.236C276.187 62.7507 275.412 62.368 274.89 62.088C274.386 61.808 273.798 61.416 273.126 60.912C271.838 59.9227 271.194 58.6907 271.194 57.216C271.194 55.7413 271.763 54.5187 272.902 53.548C274.059 52.5587 275.618 52.064 277.578 52.064C279.538 52.064 281.628 52.6893 283.85 53.94C283.85 55.284 283.71 56.74 283.43 58.308C282.832 58.4947 281.946 58.588 280.77 58.588L279.958 55.256C279.267 55.0507 278.511 54.948 277.69 54.948C276.868 54.948 276.234 55.1253 275.786 55.48C275.338 55.8347 275.114 56.3667 275.114 57.076C275.114 57.7667 275.459 58.392 276.15 58.952C276.859 59.4933 277.708 59.9973 278.698 60.464C279.687 60.912 280.368 61.2293 280.742 61.416C281.115 61.6027 281.591 61.8827 282.17 62.256C282.748 62.6293 283.187 62.984 283.486 63.32C284.251 64.216 284.634 65.2147 284.634 66.316C284.634 68.2573 283.99 69.7507 282.702 70.796C281.414 71.8413 279.734 72.364 277.662 72.364C276.56 72.364 275.347 72.1773 274.022 71.804C272.715 71.412 271.604 70.9173 270.69 70.32C270.727 69.1813 270.876 67.6413 271.138 65.7C271.884 65.5507 272.78 65.476 273.826 65.476L274.414 68.836C275.44 69.1533 276.523 69.312 277.662 69.312ZM293.796 69.592C294.431 69.592 295.719 69.1533 297.66 68.276C298.071 68.8733 298.379 69.564 298.584 70.348C297.558 70.9827 296.55 71.4773 295.56 71.832C294.59 72.168 293.899 72.336 293.488 72.336C291.23 72.336 289.512 71.7107 288.336 70.46C287.179 69.2093 286.6 67.436 286.6 65.14C286.6 62.8253 287.179 60.968 288.336 59.568C289.494 58.1493 291.211 57.44 293.488 57.44C295.299 57.44 296.68 58.028 297.632 59.204C298.584 60.38 299.06 61.9107 299.06 63.796C299.06 64.188 298.836 64.636 298.388 65.14L290.324 65C290.362 66.4933 290.642 67.632 291.164 68.416C291.687 69.2 292.564 69.592 293.796 69.592ZM293.236 59.764C292.527 59.764 291.864 59.904 291.248 60.184C290.819 61.08 290.548 61.9107 290.436 62.676C291.892 62.62 293.544 62.5827 295.392 62.564C295.299 60.6973 294.58 59.764 293.236 59.764ZM305.941 72.336C304.354 72.336 303.122 72.0093 302.245 71.356C301.386 70.7027 300.957 69.6013 300.957 68.052C300.957 66.5773 301.47 65.3733 302.497 64.44C303.094 63.8987 303.925 63.5813 304.989 63.488C306.053 63.3947 307.518 63.348 309.385 63.348V62.9C309.385 61.7613 309.198 60.9307 308.825 60.408C308.47 59.8667 307.835 59.596 306.921 59.596C306.454 59.596 306.034 59.6893 305.661 59.876L304.989 62.312L302.917 62.256C302.45 61.5467 302.198 60.4173 302.161 58.868C302.534 58.6813 303.411 58.4013 304.793 58.028C306.174 57.636 307.061 57.44 307.453 57.44C309.469 57.44 310.934 57.86 311.849 58.7C312.763 59.5213 313.221 60.8373 313.221 62.648C313.221 64.44 313.137 66.8107 312.969 69.76C314.033 69.8533 314.854 70.012 315.433 70.236C315.451 70.46 315.461 70.7307 315.461 71.048L315.433 71.664C314.089 72.112 312.735 72.336 311.373 72.336C311.018 72.336 310.757 72.3267 310.589 72.308C310.309 71.748 310.141 71.076 310.085 70.292H309.945C309.59 70.628 308.965 71.0573 308.069 71.58C307.191 72.084 306.482 72.336 305.941 72.336ZM304.541 68.22C304.541 68.836 304.727 69.2933 305.101 69.592C305.493 69.872 305.931 70.012 306.417 70.012C306.902 70.012 307.481 69.7973 308.153 69.368C308.825 68.92 309.366 68.5187 309.777 68.164L309.637 65.588C308.162 65.6627 307.051 65.8027 306.305 66.008C305.129 66.2507 304.541 66.988 304.541 68.22ZM324.03 60.464C323.993 60.3707 323.806 60.324 323.47 60.324C323.134 60.324 322.556 60.576 321.734 61.08C321.66 64.7387 321.613 67.4827 321.594 69.312L323.778 69.592C323.778 70.3947 323.564 71.1973 323.134 72H316.162L315.91 70.46C317.068 70.0307 317.908 69.7507 318.43 69.62L318.122 60.548C317.152 60.4733 316.34 60.3333 315.686 60.128L315.882 58.112C316.386 57.888 318.206 57.7387 321.342 57.664C321.51 57.832 321.594 58.1587 321.594 58.644C323.237 57.8413 324.273 57.44 324.702 57.44C325.15 57.44 325.692 57.552 326.326 57.776C326.98 57.9813 327.474 58.2053 327.81 58.448V58.924C327.81 60.4547 327.624 61.8733 327.25 63.18C326.933 63.3107 326.513 63.376 325.99 63.376C325.468 63.376 324.982 63.348 324.534 63.292C324.478 63.0493 324.31 62.1067 324.03 60.464ZM336.076 59.764L335.628 59.736C334.583 59.736 333.743 60.1 333.108 60.828C332.492 61.5373 332.184 62.7413 332.184 64.44C332.184 66.12 332.418 67.3987 332.884 68.276C333.37 69.1533 334.294 69.592 335.656 69.592C336.291 69.592 337.635 69.1627 339.688 68.304C340.155 68.9573 340.407 69.6387 340.444 70.348C339.418 70.9827 338.41 71.4773 337.42 71.832C336.45 72.1867 335.759 72.364 335.348 72.364C333.052 72.364 331.335 71.7387 330.196 70.488C329.058 69.2187 328.488 67.4453 328.488 65.168C328.488 60.016 330.812 57.44 335.46 57.44C336.263 57.44 337.084 57.5427 337.924 57.748C338.783 57.9347 339.455 58.1773 339.94 58.476C339.884 60.3427 339.679 61.696 339.324 62.536C338.708 62.6853 337.84 62.76 336.72 62.76L336.076 59.764ZM347.1 51.196L347.772 51.224C347.772 52.1947 347.65 53.044 347.408 53.772C347.37 55.9 347.352 57.496 347.352 58.56C347.949 58.2987 348.63 58.0467 349.396 57.804C350.161 57.5613 350.637 57.44 350.824 57.44C352.728 57.44 354.09 57.8693 354.912 58.728C355.752 59.5867 356.172 60.94 356.172 62.788C356.172 62.9747 356.078 65.1493 355.892 69.312L358.076 69.592C358.076 70.3947 357.861 71.1973 357.432 72H350.46L350.208 70.46C351.458 69.956 352.261 69.6853 352.616 69.648C352.578 67.632 352.532 65.8493 352.476 64.3C352.42 62.732 352.27 61.696 352.028 61.192C351.785 60.688 351.393 60.436 350.852 60.436C350.329 60.436 349.722 60.5013 349.032 60.632C348.36 60.744 347.837 60.884 347.464 61.052L347.156 69.312L349.34 69.564C349.34 70.3293 349.125 71.1413 348.696 72H341.724L341.472 70.46C342.629 70.0307 343.469 69.7507 343.992 69.62L343.46 54.08C342.582 53.9867 341.845 53.8467 341.248 53.66C341.248 53.1933 341.313 52.5213 341.444 51.644C342.545 51.3453 344.43 51.196 347.1 51.196ZM373.474 69.312C375.64 69.312 376.722 68.388 376.722 66.54C376.722 65.756 376.312 65.0933 375.49 64.552C374.893 64.1413 374.072 63.7027 373.026 63.236C372 62.7507 371.225 62.368 370.702 62.088C370.198 61.808 369.61 61.416 368.938 60.912C367.65 59.9227 367.006 58.6907 367.006 57.216C367.006 55.7413 367.576 54.5187 368.714 53.548C369.872 52.5587 371.43 52.064 373.39 52.064C375.35 52.064 377.441 52.6893 379.662 53.94C379.662 55.284 379.522 56.74 379.242 58.308C378.645 58.4947 377.758 58.588 376.582 58.588L375.77 55.256C375.08 55.0507 374.324 54.948 373.502 54.948C372.681 54.948 372.046 55.1253 371.598 55.48C371.15 55.8347 370.926 56.3667 370.926 57.076C370.926 57.7667 371.272 58.392 371.962 58.952C372.672 59.4933 373.521 59.9973 374.51 60.464C375.5 60.912 376.181 61.2293 376.554 61.416C376.928 61.6027 377.404 61.8827 377.982 62.256C378.561 62.6293 379 62.984 379.298 63.32C380.064 64.216 380.446 65.2147 380.446 66.316C380.446 68.2573 379.802 69.7507 378.514 70.796C377.226 71.8413 375.546 72.364 373.474 72.364C372.373 72.364 371.16 72.1773 369.834 71.804C368.528 71.412 367.417 70.9173 366.502 70.32C366.54 69.1813 366.689 67.6413 366.95 65.7C367.697 65.5507 368.593 65.476 369.638 65.476L370.226 68.836C371.253 69.1533 372.336 69.312 373.474 69.312ZM389.553 59.68C388.881 59.68 388.116 59.848 387.257 60.184C387.014 60.5573 386.781 61.22 386.557 62.172C386.352 63.1053 386.249 64.048 386.249 65C386.249 66.7547 386.51 68.0053 387.033 68.752C387.556 69.48 388.396 69.844 389.553 69.844C390.729 69.844 391.578 69.48 392.101 68.752C392.624 68.0053 392.885 66.736 392.885 64.944C392.885 63.1333 392.614 61.808 392.073 60.968C391.55 60.1093 390.71 59.68 389.553 59.68ZM389.553 57.44C391.737 57.44 393.492 58.112 394.817 59.456C396.161 60.7813 396.833 62.6387 396.833 65.028C396.833 67.3987 396.17 69.2093 394.845 70.46C393.52 71.7107 391.756 72.336 389.553 72.336C387.35 72.336 385.586 71.7107 384.261 70.46C382.954 69.2093 382.301 67.3987 382.301 65.028C382.301 62.6387 382.964 60.7813 384.289 59.456C385.614 58.112 387.369 57.44 389.553 57.44ZM402.743 51.196C403.098 51.196 403.322 51.2053 403.415 51.224C403.415 52.1947 403.294 53.044 403.051 53.772C403.033 54.9293 403.005 56.5627 402.967 58.672C402.893 63.3013 402.837 66.848 402.799 69.312L404.983 69.564C404.983 70.3293 404.769 71.1413 404.339 72H397.367L397.115 70.46C398.273 70.0307 399.113 69.7507 399.635 69.62L399.103 54.08C398.226 53.9867 397.489 53.8467 396.891 53.66C396.891 52.9693 396.957 52.2973 397.087 51.644C398.189 51.3453 400.074 51.196 402.743 51.196ZM418.869 57.664C419.224 57.664 419.448 57.6733 419.541 57.692C419.541 58.644 419.383 59.4653 419.065 60.156C418.953 64.2627 418.86 67.296 418.785 69.256C419.625 69.3307 420.363 69.4707 420.997 69.676L420.941 71.636C419.803 71.9907 418.823 72.168 418.001 72.168C417.18 72.168 416.62 72.1493 416.321 72.112C416.097 71.664 415.911 71.216 415.761 70.768C414.212 71.8133 413.092 72.336 412.401 72.336C409.06 72.336 407.389 70.6467 407.389 67.268C407.389 66.3533 407.464 64.104 407.613 60.52C406.624 60.52 405.719 60.3893 404.897 60.128C404.897 59.6613 404.963 58.9893 405.093 58.112C406.195 57.8133 408.08 57.664 410.749 57.664C411.104 57.664 411.328 57.6733 411.421 57.692C411.421 58.6067 411.263 59.456 410.945 60.24V65.896C410.945 67.0907 411.067 67.968 411.309 68.528C411.571 69.0693 412.112 69.34 412.933 69.34C413.773 69.34 414.632 69.0507 415.509 68.472L415.341 60.52C414.52 60.4827 413.745 60.352 413.017 60.128C413.017 59.6613 413.083 58.9893 413.213 58.112C414.315 57.8133 416.2 57.664 418.869 57.664ZM425.526 72.336L424.91 72.308C424.798 72.1027 424.648 71.72 424.462 71.16C424.275 70.6 424.172 70.18 424.154 69.9C424.06 68.052 423.958 64.8507 423.846 60.296H421.886L421.97 58.7C422.399 58.4013 422.912 58.1307 423.51 57.888L425.778 54.304C426.506 54.3787 427.075 54.5747 427.486 54.892L427.458 57.552C428.634 57.5893 429.726 57.7013 430.734 57.888C430.734 58.6347 430.5 59.4373 430.034 60.296H427.43C427.355 64.216 427.308 67.156 427.29 69.116C428.036 69.1907 429.054 69.4053 430.342 69.76L430.314 71.216C429.996 71.4213 429.287 71.664 428.186 71.944C427.103 72.2053 426.216 72.336 425.526 72.336ZM437.696 57.664C438.051 57.664 438.275 57.6733 438.368 57.692C438.368 58.6067 438.209 59.456 437.892 60.24C437.817 64.272 437.771 67.296 437.752 69.312L439.936 69.564C439.936 70.3293 439.721 71.1413 439.292 72H432.32L432.068 70.46C433.225 70.0307 434.065 69.7507 434.588 69.62L434.28 60.548C433.179 60.436 432.367 60.296 431.844 60.128C431.844 59.6613 431.909 58.9893 432.04 58.112C433.141 57.8133 435.027 57.664 437.696 57.664ZM437.696 52.372C437.864 53.212 437.948 53.856 437.948 54.304C437.948 54.7333 437.911 55.2187 437.836 55.76C437.089 55.928 436.455 56.012 435.932 56.012C435.428 56.012 434.812 55.984 434.084 55.928C433.916 55.088 433.832 54.4533 433.832 54.024C433.832 53.576 433.869 53.0813 433.944 52.54C434.691 52.372 435.316 52.288 435.82 52.288C436.343 52.288 436.968 52.316 437.696 52.372ZM447.877 59.68C447.205 59.68 446.44 59.848 445.581 60.184C445.339 60.5573 445.105 61.22 444.881 62.172C444.676 63.1053 444.573 64.048 444.573 65C444.573 66.7547 444.835 68.0053 445.357 68.752C445.88 69.48 446.72 69.844 447.877 69.844C449.053 69.844 449.903 69.48 450.425 68.752C450.948 68.0053 451.209 66.736 451.209 64.944C451.209 63.1333 450.939 61.808 450.397 60.968C449.875 60.1093 449.035 59.68 447.877 59.68ZM447.877 57.44C450.061 57.44 451.816 58.112 453.141 59.456C454.485 60.7813 455.157 62.6387 455.157 65.028C455.157 67.3987 454.495 69.2093 453.169 70.46C451.844 71.7107 450.08 72.336 447.877 72.336C445.675 72.336 443.911 71.7107 442.585 70.46C441.279 69.2093 440.625 67.3987 440.625 65.028C440.625 62.6387 441.288 60.7813 442.613 59.456C443.939 58.112 445.693 57.44 447.877 57.44ZM464.876 57.44C466.742 57.44 468.096 57.8973 468.936 58.812C469.776 59.7267 470.196 61.0053 470.196 62.648C470.196 64.2907 470.102 66.512 469.916 69.312L472.128 69.564C472.128 70.3293 471.913 71.1413 471.484 72H464.512L464.26 70.46C465.137 70.1053 465.949 69.8253 466.696 69.62C466.64 67.4733 466.584 65.672 466.528 64.216C466.472 62.7413 466.332 61.7427 466.108 61.22C465.884 60.6973 465.389 60.436 464.624 60.436C463.466 60.436 462.43 60.6413 461.516 61.052C461.497 61.8547 461.441 63.1707 461.348 65C461.273 66.8107 461.226 68.248 461.208 69.312L463.392 69.564C463.392 70.3293 463.177 71.1413 462.748 72H455.776L455.524 70.46C456.457 70.1053 457.297 69.8253 458.044 69.62C458.025 68.5 457.96 66.9507 457.848 64.972C457.754 62.9933 457.698 61.528 457.68 60.576C456.989 60.5013 456.252 60.3613 455.468 60.156L455.608 58.14C456.914 57.7853 458.389 57.608 460.032 57.608C460.237 57.7387 460.517 58.14 460.872 58.812C461.506 58.4947 462.281 58.1867 463.196 57.888C464.11 57.5893 464.67 57.44 464.876 57.44Z" fill="#1935DA"/>
</svg>
