<svg width="472" height="149" viewBox="0 0 472 149" fill="none" xmlns="http://www.w3.org/2000/svg">
<rect y="11.9888" width="21.7627" height="61.94" fill="#1935DA"/>
<rect x="23.437" y="11.9888" width="21.7627" height="61.94" fill="#1935DA"/>
<rect x="26.7847" y="15.3369" width="15.0665" height="5.02216" fill="#FFDA27"/>
<rect x="3.34814" y="15.3369" width="15.0665" height="5.02216" fill="#FFDA27"/>
<rect x="26.7847" y="65.5586" width="15.0665" height="5.02216" fill="#FFDA27"/>
<rect x="43.8237" y="23.0928" width="21.7627" height="61.94" transform="rotate(-36.9853 43.8237 23.0928)" fill="#1935DA"/>
<rect x="48.5127" y="23.7534" width="15.0665" height="5.02216" transform="rotate(-36.9853 48.5127 23.7534)" fill="#FFDA27"/>
<rect x="78.7261" y="63.8691" width="15.0665" height="5.02216" transform="rotate(-36.9853 78.7261 63.8691)" fill="#FFDA27"/>
<rect x="3.34814" y="65.5586" width="15.0665" height="5.02216" fill="#FFDA27"/>
<path d="M121.172 18.936L120.056 18.9L119.012 14.58C117.62 14.34 116.576 14.22 115.88 14.22C114.512 14.22 112.976 14.496 111.272 15.048C110.768 15.984 110.372 17.184 110.084 18.648C109.796 20.112 109.652 21.492 109.652 22.788C109.652 29.412 111.56 32.724 115.376 32.724C117.008 32.724 118.304 32.484 119.264 32.004L120.02 27.612C121.532 27.612 122.684 27.696 123.476 27.864C123.86 30.48 124.052 32.604 124.052 34.236C123.476 34.668 122.312 35.148 120.56 35.676C118.832 36.204 117.128 36.468 115.448 36.468C108.296 36.468 104.72 32.052 104.72 23.22C104.72 19.02 105.584 15.828 107.312 13.644C109.064 11.46 111.848 10.368 115.664 10.368C117.56 10.368 119.24 10.644 120.704 11.196C122 11.676 123.104 12.204 124.016 12.78C124.016 14.412 123.836 16.38 123.476 18.684C122.804 18.852 122.036 18.936 121.172 18.936ZM143.954 11.196L143.99 11.556C143.99 12.54 143.834 13.38 143.522 14.076C143.21 14.316 142.718 14.508 142.046 14.652L148.058 32.436L151.478 32.868C151.478 33.852 151.202 34.896 150.65 36H141.902L141.578 34.02C142.586 33.636 143.246 33.384 143.558 33.264L142.118 29.196H134.018C133.298 31.332 132.914 32.448 132.866 32.544L135.35 32.868C135.35 33.372 135.254 33.96 135.062 34.632C134.87 35.28 134.69 35.736 134.522 36H125.774L125.45 34.02C126.53 33.564 127.502 33.228 128.366 33.012L134.414 14.508C132.806 14.268 131.594 13.956 130.778 13.572C130.778 12.876 130.886 12.264 131.102 11.736C131.606 11.568 132.782 11.376 134.63 11.16C136.502 10.92 138.278 10.8 139.958 10.8C141.662 10.8 142.994 10.932 143.954 11.196ZM139.31 21.096L138.266 16.344H137.906L136.754 21.312L135.062 25.812H141.074L139.31 21.096ZM163.259 10.8C166.307 10.8 168.575 11.328 170.063 12.384C171.551 13.44 172.295 15.36 172.295 18.144C172.295 20.472 171.575 22.416 170.135 23.976C168.695 25.512 166.391 26.28 163.223 26.28C162.191 26.28 161.375 26.268 160.775 26.244L160.703 32.58L163.331 32.868C163.331 33.924 163.055 34.968 162.503 36H153.611L153.287 34.02C154.535 33.516 155.543 33.168 156.311 32.976C156.311 32.904 156.203 26.556 155.987 13.932C155.603 13.836 154.607 13.524 152.999 12.996L153.287 10.8H163.259ZM162.467 22.86C164.075 22.836 165.323 22.392 166.211 21.528C167.099 20.664 167.543 19.548 167.543 18.18C167.543 16.812 167.147 15.84 166.355 15.264C165.587 14.664 164.375 14.364 162.719 14.364C162.071 14.364 161.459 14.376 160.883 14.4C160.835 18.192 160.811 21.024 160.811 22.896L162.467 22.86ZM183.174 32.544C185.958 32.544 187.35 31.356 187.35 28.98C187.35 27.972 186.822 27.12 185.766 26.424C184.998 25.896 183.942 25.332 182.598 24.732C181.278 24.108 180.282 23.616 179.61 23.256C178.962 22.896 178.206 22.392 177.342 21.744C175.686 20.472 174.858 18.888 174.858 16.992C174.858 15.096 175.59 13.524 177.054 12.276C178.542 11.004 180.546 10.368 183.066 10.368C185.586 10.368 188.274 11.172 191.13 12.78C191.13 14.508 190.95 16.38 190.59 18.396C189.822 18.636 188.682 18.756 187.17 18.756L186.126 14.472C185.238 14.208 184.266 14.076 183.21 14.076C182.154 14.076 181.338 14.304 180.762 14.76C180.186 15.216 179.898 15.9 179.898 16.812C179.898 17.7 180.342 18.504 181.23 19.224C182.142 19.92 183.234 20.568 184.506 21.168C185.778 21.744 186.654 22.152 187.134 22.392C187.614 22.632 188.226 22.992 188.97 23.472C189.714 23.952 190.278 24.408 190.662 24.84C191.646 25.992 192.138 27.276 192.138 28.692C192.138 31.188 191.31 33.108 189.654 34.452C187.998 35.796 185.838 36.468 183.174 36.468C181.758 36.468 180.198 36.228 178.494 35.748C176.814 35.244 175.386 34.608 174.21 33.84C174.258 32.376 174.45 30.396 174.786 27.9C175.746 27.708 176.898 27.612 178.242 27.612L178.998 31.932C180.318 32.34 181.71 32.544 183.174 32.544ZM194.523 17.352C194.139 15.696 193.947 14.388 193.947 13.428C193.947 12.468 193.983 11.592 194.055 10.8H214.971C215.067 11.952 215.115 12.732 215.115 13.14C215.115 14.172 214.923 15.576 214.539 17.352C213.843 17.544 212.703 17.64 211.119 17.64L210.291 14.004H207.231C207.207 14.916 207.099 21.096 206.907 32.544L209.499 32.868C209.499 33.972 209.223 35.016 208.671 36H199.923L199.599 34.02C201.255 33.396 202.299 33.048 202.731 32.976C202.731 32.88 202.587 26.568 202.299 14.04H198.735L197.943 17.568C196.527 17.568 195.387 17.496 194.523 17.352ZM227.466 32.616C231.45 32.616 233.442 29.556 233.442 23.436C233.442 17.316 231.45 14.256 227.466 14.256C225.738 14.256 224.226 14.52 222.93 15.048C221.826 17.352 221.274 20.028 221.274 23.076C221.274 26.1 221.73 28.452 222.642 30.132C223.554 31.788 225.162 32.616 227.466 32.616ZM227.466 10.368C231.474 10.368 234.294 11.424 235.926 13.536C237.558 15.624 238.374 18.828 238.374 23.148C238.374 25.86 238.026 28.176 237.33 30.096C236.634 32.016 235.458 33.552 233.802 34.704C232.146 35.856 230.034 36.432 227.466 36.432C223.554 36.432 220.71 35.34 218.934 33.156C217.182 30.972 216.306 27.792 216.306 23.616C216.306 14.784 220.026 10.368 227.466 10.368ZM264.455 14.004L264.347 36H259.739L247.859 16.632C247.763 23.664 247.703 28.968 247.679 32.544L250.163 32.868C250.163 33.852 249.887 34.896 249.335 36H240.587L240.263 34.02C241.607 33.468 242.615 33.12 243.287 32.976C243.287 32.904 243.179 26.556 242.963 13.932L239.975 12.996L240.263 10.8H249.623L260.099 29.592L259.559 13.932L256.571 12.996L256.859 10.8H266.219C266.195 10.8 266.195 10.824 266.219 10.872C266.267 10.92 266.315 11.028 266.363 11.196C266.435 11.34 266.507 11.52 266.579 11.736C266.723 12.12 266.819 12.756 266.867 13.644C265.643 13.836 264.839 13.956 264.455 14.004ZM276.124 14.4C276.124 17.136 276.1 19.488 276.052 21.456H279.724L280.084 18.972C281.308 18.972 282.496 19.272 283.648 19.872V27.072L281.272 27.18C280.696 26.316 280.36 25.56 280.264 24.912H276.016C275.968 28.272 275.944 30.804 275.944 32.508H282.1L282.892 29.376C284.38 29.376 285.508 29.448 286.276 29.592C286.636 30.96 286.816 32.208 286.816 33.336C286.816 34.44 286.78 35.328 286.708 36H268.852L268.528 34.02C270.088 33.42 271.096 33.072 271.552 32.976C271.528 31.56 271.504 29.568 271.48 27C271.384 21.24 271.3 16.884 271.228 13.932L268.24 12.996L268.528 10.8H286.204C286.276 11.448 286.312 12.264 286.312 13.248C286.312 14.208 286.132 15.552 285.772 17.28C285.028 17.52 283.9 17.64 282.388 17.64L281.56 14.4H276.124ZM316.606 11.196L316.642 11.556C316.642 12.54 316.486 13.38 316.174 14.076C315.862 14.316 315.37 14.508 314.698 14.652L320.71 32.436L324.13 32.868C324.13 33.852 323.854 34.896 323.302 36H314.554L314.23 34.02C315.238 33.636 315.898 33.384 316.21 33.264L314.77 29.196H306.67C305.95 31.332 305.566 32.448 305.518 32.544L308.002 32.868C308.002 33.372 307.906 33.96 307.714 34.632C307.522 35.28 307.342 35.736 307.174 36H298.426L298.102 34.02C299.182 33.564 300.154 33.228 301.018 33.012L307.066 14.508C305.458 14.268 304.246 13.956 303.43 13.572C303.43 12.876 303.538 12.264 303.754 11.736C304.258 11.568 305.434 11.376 307.282 11.16C309.154 10.92 310.93 10.8 312.61 10.8C314.314 10.8 315.646 10.932 316.606 11.196ZM311.962 21.096L310.918 16.344H310.558L309.406 21.312L307.714 25.812H313.726L311.962 21.096ZM334.651 10.8C338.851 10.8 341.635 11.4 343.003 12.6C344.251 13.68 344.875 15.348 344.875 17.604C344.875 21.108 343.051 23.496 339.403 24.768L344.587 32.58L347.683 32.904C347.683 33.936 347.407 34.968 346.855 36H341.635L334.579 25.236H333.427L333.319 32.58L335.947 32.868C335.947 33.852 335.671 34.896 335.119 36H326.227L325.903 34.02C327.343 33.444 328.351 33.096 328.927 32.976C328.879 30.024 328.819 26.46 328.747 22.284C328.675 18.108 328.627 15.312 328.603 13.896L325.615 12.996C325.639 12.444 325.747 11.712 325.939 10.8H334.651ZM337.495 14.652C336.751 14.484 335.755 14.4 334.507 14.4H333.499C333.451 17.712 333.427 20.196 333.427 21.852L335.191 21.816C336.607 21.792 337.723 21.504 338.539 20.952C339.379 20.376 339.799 19.272 339.799 17.64C339.799 16.008 339.031 15.012 337.495 14.652ZM365.332 18.936L364.216 18.9L363.172 14.58C361.78 14.34 360.736 14.22 360.04 14.22C358.672 14.22 357.136 14.496 355.432 15.048C354.928 15.984 354.532 17.184 354.244 18.648C353.956 20.112 353.812 21.492 353.812 22.788C353.812 29.412 355.72 32.724 359.536 32.724C361.168 32.724 362.464 32.484 363.424 32.004L364.18 27.612C365.692 27.612 366.844 27.696 367.636 27.864C368.02 30.48 368.212 32.604 368.212 34.236C367.636 34.668 366.472 35.148 364.72 35.676C362.992 36.204 361.288 36.468 359.608 36.468C352.456 36.468 348.88 32.052 348.88 23.22C348.88 19.02 349.744 15.828 351.472 13.644C353.224 11.46 356.008 10.368 359.824 10.368C361.72 10.368 363.4 10.644 364.864 11.196C366.16 11.676 367.264 12.204 368.176 12.78C368.176 14.412 367.996 16.38 367.636 18.684C366.964 18.852 366.196 18.936 365.332 18.936ZM387.862 32.976L387.718 24.48H378.286C378.238 28.08 378.214 30.768 378.214 32.544L380.698 32.868C380.698 33.852 380.422 34.896 379.87 36H371.122L370.798 34.02C372.142 33.468 373.15 33.12 373.822 32.976C373.822 32.904 373.714 26.556 373.498 13.932L370.51 12.996L370.798 10.8H380.122C380.506 11.448 380.734 12.396 380.806 13.644C379.582 13.836 378.778 13.956 378.394 14.004C378.346 17.124 378.322 19.464 378.322 21.024H387.646L387.538 13.932L384.55 12.996L384.838 10.8H394.162C394.546 11.448 394.774 12.396 394.846 13.644C393.622 13.836 392.818 13.956 392.434 14.004L392.254 32.544L394.738 32.868C394.738 33.852 394.462 34.896 393.91 36H385.162L384.838 34.02C386.182 33.468 387.19 33.12 387.862 32.976ZM407.847 10.8C407.823 10.8 407.823 10.824 407.847 10.872C407.895 10.92 407.943 11.028 407.991 11.196C408.063 11.34 408.135 11.52 408.207 11.736C408.351 12.12 408.447 12.756 408.495 13.644C407.271 13.836 406.467 13.956 406.083 14.004L405.903 32.544L408.387 32.868C408.387 33.852 408.111 34.896 407.559 36H398.811L398.487 34.02C399.831 33.468 400.839 33.12 401.511 32.976C401.487 31.56 401.451 29.568 401.403 27C401.331 21.24 401.259 16.884 401.187 13.932L398.199 12.996L398.487 10.8H407.847ZM423.323 29.268C423.755 27.78 425.363 22.68 428.147 13.968L424.943 12.996L425.231 10.8H434.555C434.987 11.664 435.215 12.612 435.239 13.644L433.007 13.968L425.843 36H421.055L413.315 13.968L410.111 12.996L410.399 10.8H419.723C420.155 11.664 420.383 12.612 420.407 13.644C419.375 13.812 418.667 13.92 418.283 13.968L423.323 29.268ZM445.155 14.4C445.155 17.136 445.131 19.488 445.083 21.456H448.755L449.115 18.972C450.339 18.972 451.527 19.272 452.679 19.872V27.072L450.303 27.18C449.727 26.316 449.391 25.56 449.295 24.912H445.047C444.999 28.272 444.975 30.804 444.975 32.508H451.131L451.923 29.376C453.411 29.376 454.539 29.448 455.307 29.592C455.667 30.96 455.847 32.208 455.847 33.336C455.847 34.44 455.811 35.328 455.739 36H437.883L437.559 34.02C439.119 33.42 440.127 33.072 440.583 32.976C440.559 31.56 440.535 29.568 440.511 27C440.415 21.24 440.331 16.884 440.259 13.932L437.271 12.996L437.559 10.8H455.235C455.307 11.448 455.343 12.264 455.343 13.248C455.343 14.208 455.163 15.552 454.803 17.28C454.059 17.52 452.931 17.64 451.419 17.64L450.591 14.4H445.155Z" fill="#0A28D8"/>
<path d="M117.494 52.086L117.52 52.346C117.52 53.0567 117.407 53.6633 117.182 54.166C116.957 54.3393 116.601 54.478 116.116 54.582L120.458 67.426L122.928 67.738C122.928 68.4487 122.729 69.2027 122.33 70H116.012L115.778 68.57C116.506 68.2927 116.983 68.1107 117.208 68.024L116.168 65.086H110.318C109.798 66.6287 109.521 67.4347 109.486 67.504L111.28 67.738C111.28 68.102 111.211 68.5267 111.072 69.012C110.933 69.48 110.803 69.8093 110.682 70H104.364L104.13 68.57C104.91 68.2407 105.612 67.998 106.236 67.842L110.604 54.478C109.443 54.3047 108.567 54.0793 107.978 53.802C107.978 53.2993 108.056 52.8573 108.212 52.476C108.576 52.3547 109.425 52.216 110.76 52.06C112.112 51.8867 113.395 51.8 114.608 51.8C115.839 51.8 116.801 51.8953 117.494 52.086ZM114.14 59.236L113.386 55.804H113.126L112.294 59.392L111.072 62.642H115.414L114.14 59.236ZM132.685 56.48C134.418 56.48 135.675 56.9047 136.455 57.754C137.235 58.6033 137.625 59.7907 137.625 61.316C137.625 62.8413 137.538 64.904 137.365 67.504L139.419 67.738C139.419 68.4487 139.219 69.2027 138.821 70H132.347L132.113 68.57C132.927 68.2407 133.681 67.9807 134.375 67.79C134.323 65.7967 134.271 64.124 134.219 62.772C134.167 61.4027 134.037 60.4753 133.829 59.99C133.621 59.5047 133.161 59.262 132.451 59.262C131.376 59.262 130.414 59.4527 129.565 59.834C129.547 60.5793 129.495 61.8013 129.409 63.5C129.339 65.1813 129.296 66.516 129.279 67.504L131.307 67.738C131.307 68.4487 131.107 69.2027 130.709 70H124.235L124.001 68.57C124.867 68.2407 125.647 67.9807 126.341 67.79C126.323 66.75 126.263 65.3113 126.159 63.474C126.072 61.6367 126.02 60.276 126.003 59.392C125.361 59.3227 124.677 59.1927 123.949 59.002L124.079 57.13C125.292 56.8007 126.661 56.636 128.187 56.636C128.377 56.7573 128.637 57.13 128.967 57.754C129.556 57.4593 130.275 57.1733 131.125 56.896C131.974 56.6187 132.494 56.48 132.685 56.48ZM159.49 52.086L159.516 52.346C159.516 53.0567 159.403 53.6633 159.178 54.166C158.953 54.3393 158.597 54.478 158.112 54.582L162.454 67.426L164.924 67.738C164.924 68.4487 164.725 69.2027 164.326 70H158.008L157.774 68.57C158.502 68.2927 158.979 68.1107 159.204 68.024L158.164 65.086H152.314C151.794 66.6287 151.517 67.4347 151.482 67.504L153.276 67.738C153.276 68.102 153.207 68.5267 153.068 69.012C152.929 69.48 152.799 69.8093 152.678 70H146.36L146.126 68.57C146.906 68.2407 147.608 67.998 148.232 67.842L152.6 54.478C151.439 54.3047 150.563 54.0793 149.974 53.802C149.974 53.2993 150.052 52.8573 150.208 52.476C150.572 52.3547 151.421 52.216 152.756 52.06C154.108 51.8867 155.391 51.8 156.604 51.8C157.835 51.8 158.797 51.8953 159.49 52.086ZM156.136 59.236L155.382 55.804H155.122L154.29 59.392L153.068 62.642H157.41L156.136 59.236ZM177.671 50.682C178 50.682 178.208 50.6907 178.295 50.708C178.295 51.6093 178.182 52.398 177.957 53.074C177.887 54.946 177.801 57.6153 177.697 61.082C177.61 64.5313 177.549 66.8107 177.515 67.92C178.537 68.0587 179.3 68.206 179.803 68.362V69.61C178.711 70.078 177.211 70.312 175.305 70.312C175.201 70.1213 175.062 69.6533 174.889 68.908C173.294 69.7747 172.141 70.2427 171.431 70.312C169.663 70.312 168.337 69.6707 167.453 68.388C166.586 67.1053 166.153 65.4587 166.153 63.448C166.153 61.42 166.595 59.7213 167.479 58.352C168.363 56.9653 169.671 56.272 171.405 56.272C172.358 56.272 173.363 56.5667 174.421 57.156L174.291 53.36C173.476 53.2733 172.791 53.1433 172.237 52.97C172.237 52.5367 172.297 51.9127 172.419 51.098C173.441 50.8207 175.192 50.682 177.671 50.682ZM171.821 58.82C170.33 58.82 169.585 60.2587 169.585 63.136C169.585 64.7827 169.879 66.022 170.469 66.854C170.798 67.3393 171.223 67.582 171.743 67.582C172.627 67.582 173.623 67.2787 174.733 66.672L174.499 59.964C173.511 59.2013 172.618 58.82 171.821 58.82ZM187.822 66.1L188.784 62.226L190.162 58.898C189.573 58.794 188.845 58.5687 187.978 58.222L188.212 56.792H194.686C195.085 57.5893 195.284 58.3433 195.284 59.054C194.608 59.158 193.932 59.2273 193.256 59.262C192.909 60.4233 192.225 62.2173 191.202 64.644C190.197 67.0707 189.521 68.856 189.174 70H185.82L181.686 59.288L179.658 59.054C179.658 58.3433 179.857 57.5893 180.256 56.792H186.73L186.964 58.222C186.253 58.5513 185.655 58.7767 185.17 58.898L186.418 62.2L187.328 66.1H187.822ZM200.948 70.312C199.475 70.312 198.331 70.0087 197.516 69.402C196.719 68.7953 196.32 67.7727 196.32 66.334C196.32 64.9647 196.797 63.8467 197.75 62.98C198.305 62.4773 199.076 62.1827 200.064 62.096C201.052 62.0093 202.413 61.966 204.146 61.966V61.55C204.146 60.4927 203.973 59.7213 203.626 59.236C203.297 58.7333 202.707 58.482 201.858 58.482C201.425 58.482 201.035 58.5687 200.688 58.742L200.064 61.004L198.14 60.952C197.707 60.2933 197.473 59.2447 197.438 57.806C197.785 57.6327 198.599 57.3727 199.882 57.026C201.165 56.662 201.988 56.48 202.352 56.48C204.224 56.48 205.585 56.87 206.434 57.65C207.283 58.4127 207.708 59.6347 207.708 61.316C207.708 62.98 207.63 65.1813 207.474 67.92C208.462 68.0067 209.225 68.154 209.762 68.362C209.779 68.57 209.788 68.8213 209.788 69.116L209.762 69.688C208.514 70.104 207.257 70.312 205.992 70.312C205.663 70.312 205.42 70.3033 205.264 70.286C205.004 69.766 204.848 69.142 204.796 68.414H204.666C204.337 68.726 203.756 69.1247 202.924 69.61C202.109 70.078 201.451 70.312 200.948 70.312ZM199.648 66.49C199.648 67.062 199.821 67.4867 200.168 67.764C200.532 68.024 200.939 68.154 201.39 68.154C201.841 68.154 202.378 67.9547 203.002 67.556C203.626 67.14 204.129 66.7673 204.51 66.438L204.38 64.046C203.011 64.1153 201.979 64.2453 201.286 64.436C200.194 64.6613 199.648 65.346 199.648 66.49ZM218.734 56.48C220.467 56.48 221.724 56.9047 222.504 57.754C223.284 58.6033 223.674 59.7907 223.674 61.316C223.674 62.8413 223.587 64.904 223.414 67.504L225.468 67.738C225.468 68.4487 225.268 69.2027 224.87 70H218.396L218.162 68.57C218.976 68.2407 219.73 67.9807 220.424 67.79C220.372 65.7967 220.32 64.124 220.268 62.772C220.216 61.4027 220.086 60.4753 219.878 59.99C219.67 59.5047 219.21 59.262 218.5 59.262C217.425 59.262 216.463 59.4527 215.614 59.834C215.596 60.5793 215.544 61.8013 215.458 63.5C215.388 65.1813 215.345 66.516 215.328 67.504L217.356 67.738C217.356 68.4487 217.156 69.2027 216.758 70H210.284L210.05 68.57C210.916 68.2407 211.696 67.9807 212.39 67.79C212.372 66.75 212.312 65.3113 212.208 63.474C212.121 61.6367 212.069 60.276 212.052 59.392C211.41 59.3227 210.726 59.1927 209.998 59.002L210.128 57.13C211.341 56.8007 212.71 56.636 214.236 56.636C214.426 56.7573 214.686 57.13 215.016 57.754C215.605 57.4593 216.324 57.1733 217.174 56.896C218.023 56.6187 218.543 56.48 218.734 56.48ZM233.273 58.638L232.857 58.612C231.886 58.612 231.106 58.95 230.517 59.626C229.945 60.2847 229.659 61.4027 229.659 62.98C229.659 64.54 229.876 65.7273 230.309 66.542C230.76 67.3567 231.618 67.764 232.883 67.764C233.472 67.764 234.72 67.3653 236.627 66.568C237.06 67.1747 237.294 67.8073 237.329 68.466C236.376 69.0553 235.44 69.5147 234.521 69.844C233.62 70.1733 232.978 70.338 232.597 70.338C230.465 70.338 228.87 69.7573 227.813 68.596C226.756 67.4173 226.227 65.7707 226.227 63.656C226.227 58.872 228.385 56.48 232.701 56.48C233.446 56.48 234.209 56.5753 234.989 56.766C235.786 56.9393 236.41 57.1647 236.861 57.442C236.809 59.1753 236.618 60.432 236.289 61.212C235.717 61.3507 234.911 61.42 233.871 61.42L233.273 58.638ZM245.277 67.764C245.866 67.764 247.062 67.3567 248.865 66.542C249.246 67.0967 249.532 67.738 249.723 68.466C248.769 69.0553 247.833 69.5147 246.915 69.844C246.013 70.156 245.372 70.312 244.991 70.312C242.893 70.312 241.299 69.7313 240.207 68.57C239.132 67.4087 238.595 65.762 238.595 63.63C238.595 61.4807 239.132 59.756 240.207 58.456C241.281 57.1387 242.876 56.48 244.991 56.48C246.672 56.48 247.955 57.026 248.839 58.118C249.723 59.21 250.165 60.6313 250.165 62.382C250.165 62.746 249.957 63.162 249.541 63.63L242.053 63.5C242.087 64.8867 242.347 65.944 242.833 66.672C243.318 67.4 244.133 67.764 245.277 67.764ZM244.757 58.638C244.098 58.638 243.483 58.768 242.911 59.028C242.512 59.86 242.261 60.6313 242.157 61.342C243.509 61.29 245.043 61.2553 246.759 61.238C246.672 59.5047 246.005 58.638 244.757 58.638ZM263.313 50.682C263.643 50.682 263.851 50.6907 263.937 50.708C263.937 51.6093 263.825 52.398 263.599 53.074C263.53 54.946 263.443 57.6153 263.339 61.082C263.253 64.5313 263.192 66.8107 263.157 67.92C264.18 68.0587 264.943 68.206 265.445 68.362V69.61C264.353 70.078 262.854 70.312 260.947 70.312C260.843 70.1213 260.705 69.6533 260.531 68.908C258.937 69.7747 257.784 70.2427 257.073 70.312C255.305 70.312 253.979 69.6707 253.095 68.388C252.229 67.1053 251.795 65.4587 251.795 63.448C251.795 61.42 252.237 59.7213 253.121 58.352C254.005 56.9653 255.314 56.272 257.047 56.272C258.001 56.272 259.006 56.5667 260.063 57.156L259.933 53.36C259.119 53.2733 258.434 53.1433 257.879 52.97C257.879 52.5367 257.94 51.9127 258.061 51.098C259.084 50.8207 260.835 50.682 263.313 50.682ZM257.463 58.82C255.973 58.82 255.227 60.2587 255.227 63.136C255.227 64.7827 255.522 66.022 256.111 66.854C256.441 67.3393 256.865 67.582 257.385 67.582C258.269 67.582 259.266 67.2787 260.375 66.672L260.141 59.964C259.153 59.2013 258.261 58.82 257.463 58.82ZM279.958 67.504C281.969 67.504 282.974 66.646 282.974 64.93C282.974 64.202 282.593 63.5867 281.83 63.084C281.276 62.7027 280.513 62.2953 279.542 61.862C278.589 61.4113 277.87 61.056 277.384 60.796C276.916 60.536 276.37 60.172 275.746 59.704C274.55 58.7853 273.952 57.6413 273.952 56.272C273.952 54.9027 274.481 53.7673 275.538 52.866C276.613 51.9473 278.06 51.488 279.88 51.488C281.7 51.488 283.642 52.0687 285.704 53.23C285.704 54.478 285.574 55.83 285.314 57.286C284.76 57.4593 283.936 57.546 282.844 57.546L282.09 54.452C281.449 54.2613 280.747 54.166 279.984 54.166C279.222 54.166 278.632 54.3307 278.216 54.66C277.8 54.9893 277.592 55.4833 277.592 56.142C277.592 56.7833 277.913 57.364 278.554 57.884C279.213 58.3867 280.002 58.8547 280.92 59.288C281.839 59.704 282.472 59.9987 282.818 60.172C283.165 60.3453 283.607 60.6053 284.144 60.952C284.682 61.2987 285.089 61.628 285.366 61.94C286.077 62.772 286.432 63.6993 286.432 64.722C286.432 66.5247 285.834 67.9113 284.638 68.882C283.442 69.8527 281.882 70.338 279.958 70.338C278.936 70.338 277.809 70.1647 276.578 69.818C275.365 69.454 274.334 68.9947 273.484 68.44C273.519 67.3827 273.658 65.9527 273.9 64.15C274.594 64.0113 275.426 63.942 276.396 63.942L276.942 67.062C277.896 67.3567 278.901 67.504 279.958 67.504ZM294.941 67.764C295.53 67.764 296.726 67.3567 298.529 66.542C298.91 67.0967 299.196 67.738 299.387 68.466C298.433 69.0553 297.497 69.5147 296.579 69.844C295.677 70.156 295.036 70.312 294.655 70.312C292.557 70.312 290.963 69.7313 289.871 68.57C288.796 67.4087 288.259 65.762 288.259 63.63C288.259 61.4807 288.796 59.756 289.871 58.456C290.945 57.1387 292.54 56.48 294.655 56.48C296.336 56.48 297.619 57.026 298.503 58.118C299.387 59.21 299.829 60.6313 299.829 62.382C299.829 62.746 299.621 63.162 299.205 63.63L291.717 63.5C291.751 64.8867 292.011 65.944 292.497 66.672C292.982 67.4 293.797 67.764 294.941 67.764ZM294.421 58.638C293.762 58.638 293.147 58.768 292.575 59.028C292.176 59.86 291.925 60.6313 291.821 61.342C293.173 61.29 294.707 61.2553 296.423 61.238C296.336 59.5047 295.669 58.638 294.421 58.638ZM306.217 70.312C304.744 70.312 303.6 70.0087 302.785 69.402C301.988 68.7953 301.589 67.7727 301.589 66.334C301.589 64.9647 302.066 63.8467 303.019 62.98C303.574 62.4773 304.345 62.1827 305.333 62.096C306.321 62.0093 307.682 61.966 309.415 61.966V61.55C309.415 60.4927 309.242 59.7213 308.895 59.236C308.566 58.7333 307.977 58.482 307.127 58.482C306.694 58.482 306.304 58.5687 305.957 58.742L305.333 61.004L303.409 60.952C302.976 60.2933 302.742 59.2447 302.707 57.806C303.054 57.6327 303.869 57.3727 305.151 57.026C306.434 56.662 307.257 56.48 307.621 56.48C309.493 56.48 310.854 56.87 311.703 57.65C312.553 58.4127 312.977 59.6347 312.977 61.316C312.977 62.98 312.899 65.1813 312.743 67.92C313.731 68.0067 314.494 68.154 315.031 68.362C315.049 68.57 315.057 68.8213 315.057 69.116L315.031 69.688C313.783 70.104 312.527 70.312 311.261 70.312C310.932 70.312 310.689 70.3033 310.533 70.286C310.273 69.766 310.117 69.142 310.065 68.414H309.935C309.606 68.726 309.025 69.1247 308.193 69.61C307.379 70.078 306.72 70.312 306.217 70.312ZM304.917 66.49C304.917 67.062 305.091 67.4867 305.437 67.764C305.801 68.024 306.209 68.154 306.659 68.154C307.11 68.154 307.647 67.9547 308.271 67.556C308.895 67.14 309.398 66.7673 309.779 66.438L309.649 64.046C308.28 64.1153 307.249 64.2453 306.555 64.436C305.463 64.6613 304.917 65.346 304.917 66.49ZM323.015 59.288C322.98 59.2013 322.807 59.158 322.495 59.158C322.183 59.158 321.646 59.392 320.883 59.86C320.814 63.2573 320.77 65.8053 320.753 67.504L322.781 67.764C322.781 68.5093 322.582 69.2547 322.183 70H315.709L315.475 68.57C316.55 68.1713 317.33 67.9113 317.815 67.79L317.529 59.366C316.628 59.2967 315.874 59.1667 315.267 58.976L315.449 57.104C315.917 56.896 317.607 56.7573 320.519 56.688C320.675 56.844 320.753 57.1473 320.753 57.598C322.278 56.8527 323.24 56.48 323.639 56.48C324.055 56.48 324.558 56.584 325.147 56.792C325.754 56.9827 326.213 57.1907 326.525 57.416V57.858C326.525 59.2793 326.352 60.5967 326.005 61.81C325.71 61.9313 325.32 61.992 324.835 61.992C324.35 61.992 323.899 61.966 323.483 61.914C323.431 61.6887 323.275 60.8133 323.015 59.288ZM334.201 58.638L333.785 58.612C332.814 58.612 332.034 58.95 331.445 59.626C330.873 60.2847 330.587 61.4027 330.587 62.98C330.587 64.54 330.803 65.7273 331.237 66.542C331.687 67.3567 332.545 67.764 333.811 67.764C334.4 67.764 335.648 67.3653 337.555 66.568C337.988 67.1747 338.222 67.8073 338.257 68.466C337.303 69.0553 336.367 69.5147 335.449 69.844C334.547 70.1733 333.906 70.338 333.525 70.338C331.393 70.338 329.798 69.7573 328.741 68.596C327.683 67.4173 327.155 65.7707 327.155 63.656C327.155 58.872 329.313 56.48 333.629 56.48C334.374 56.48 335.137 56.5753 335.917 56.766C336.714 56.9393 337.338 57.1647 337.789 57.442C337.737 59.1753 337.546 60.432 337.217 61.212C336.645 61.3507 335.839 61.42 334.799 61.42L334.201 58.638ZM344.436 50.682L345.06 50.708C345.06 51.6093 344.948 52.398 344.722 53.074C344.688 55.05 344.67 56.532 344.67 57.52C345.225 57.2773 345.858 57.0433 346.568 56.818C347.279 56.5927 347.721 56.48 347.894 56.48C349.662 56.48 350.928 56.8787 351.69 57.676C352.47 58.4733 352.86 59.73 352.86 61.446C352.86 61.6193 352.774 63.6387 352.6 67.504L354.628 67.764C354.628 68.5093 354.429 69.2547 354.03 70H347.556L347.322 68.57C348.484 68.102 349.229 67.8507 349.558 67.816C349.524 65.944 349.48 64.2887 349.428 62.85C349.376 61.394 349.238 60.432 349.012 59.964C348.787 59.496 348.423 59.262 347.92 59.262C347.435 59.262 346.872 59.3227 346.23 59.444C345.606 59.548 345.121 59.678 344.774 59.834L344.488 67.504L346.516 67.738C346.516 68.4487 346.317 69.2027 345.918 70H339.444L339.21 68.57C340.285 68.1713 341.065 67.9113 341.55 67.79L341.056 53.36C340.242 53.2733 339.557 53.1433 339.002 52.97C339.002 52.5367 339.063 51.9127 339.184 51.098C340.207 50.8207 341.958 50.682 344.436 50.682ZM368.927 67.504C370.938 67.504 371.943 66.646 371.943 64.93C371.943 64.202 371.562 63.5867 370.799 63.084C370.245 62.7027 369.482 62.2953 368.511 61.862C367.558 61.4113 366.839 61.056 366.353 60.796C365.885 60.536 365.339 60.172 364.715 59.704C363.519 58.7853 362.921 57.6413 362.921 56.272C362.921 54.9027 363.45 53.7673 364.507 52.866C365.582 51.9473 367.029 51.488 368.849 51.488C370.669 51.488 372.611 52.0687 374.673 53.23C374.673 54.478 374.543 55.83 374.283 57.286C373.729 57.4593 372.905 57.546 371.813 57.546L371.059 54.452C370.418 54.2613 369.716 54.166 368.953 54.166C368.191 54.166 367.601 54.3307 367.185 54.66C366.769 54.9893 366.561 55.4833 366.561 56.142C366.561 56.7833 366.882 57.364 367.523 57.884C368.182 58.3867 368.971 58.8547 369.889 59.288C370.808 59.704 371.441 59.9987 371.787 60.172C372.134 60.3453 372.576 60.6053 373.113 60.952C373.651 61.2987 374.058 61.628 374.335 61.94C375.046 62.772 375.401 63.6993 375.401 64.722C375.401 66.5247 374.803 67.9113 373.607 68.882C372.411 69.8527 370.851 70.338 368.927 70.338C367.905 70.338 366.778 70.1647 365.547 69.818C364.334 69.454 363.303 68.9947 362.453 68.44C362.488 67.3827 362.627 65.9527 362.869 64.15C363.563 64.0113 364.395 63.942 365.365 63.942L365.911 67.062C366.865 67.3567 367.87 67.504 368.927 67.504ZM383.858 58.56C383.234 58.56 382.523 58.716 381.726 59.028C381.5 59.3747 381.284 59.99 381.076 60.874C380.885 61.7407 380.79 62.616 380.79 63.5C380.79 65.1293 381.032 66.2907 381.518 66.984C382.003 67.66 382.783 67.998 383.858 67.998C384.95 67.998 385.738 67.66 386.224 66.984C386.709 66.2907 386.952 65.112 386.952 63.448C386.952 61.7667 386.7 60.536 386.198 59.756C385.712 58.9587 384.932 58.56 383.858 58.56ZM383.858 56.48C385.886 56.48 387.515 57.104 388.746 58.352C389.994 59.5827 390.618 61.3073 390.618 63.526C390.618 65.7273 390.002 67.4087 388.772 68.57C387.541 69.7313 385.903 70.312 383.858 70.312C381.812 70.312 380.174 69.7313 378.944 68.57C377.73 67.4087 377.124 65.7273 377.124 63.526C377.124 61.3073 377.739 59.5827 378.97 58.352C380.2 57.104 381.83 56.48 383.858 56.48ZM396.106 50.682C396.435 50.682 396.643 50.6907 396.73 50.708C396.73 51.6093 396.617 52.398 396.392 53.074C396.374 54.1487 396.348 55.6653 396.314 57.624C396.244 61.9227 396.192 65.216 396.158 67.504L398.186 67.738C398.186 68.4487 397.986 69.2027 397.588 70H391.114L390.88 68.57C391.954 68.1713 392.734 67.9113 393.22 67.79L392.726 53.36C391.911 53.2733 391.226 53.1433 390.672 52.97C390.672 52.3287 390.732 51.7047 390.854 51.098C391.876 50.8207 393.627 50.682 396.106 50.682ZM411.08 56.688C411.409 56.688 411.617 56.6967 411.704 56.714C411.704 57.598 411.556 58.3607 411.262 59.002C411.158 62.8153 411.071 65.632 411.002 67.452C411.782 67.5213 412.466 67.6513 413.056 67.842L413.004 69.662C411.946 69.9913 411.036 70.156 410.274 70.156C409.511 70.156 408.991 70.1387 408.714 70.104C408.506 69.688 408.332 69.272 408.194 68.856C406.755 69.8267 405.715 70.312 405.074 70.312C401.971 70.312 400.42 68.7433 400.42 65.606C400.42 64.7567 400.489 62.668 400.628 59.34C399.709 59.34 398.868 59.2187 398.106 58.976C398.106 58.5427 398.166 57.9187 398.288 57.104C399.31 56.8267 401.061 56.688 403.54 56.688C403.869 56.688 404.077 56.6967 404.164 56.714C404.164 57.5633 404.016 58.352 403.722 59.08V64.332C403.722 65.4413 403.834 66.256 404.06 66.776C404.302 67.2787 404.805 67.53 405.568 67.53C406.348 67.53 407.145 67.2613 407.96 66.724L407.804 59.34C407.041 59.3053 406.322 59.184 405.646 58.976C405.646 58.5427 405.706 57.9187 405.828 57.104C406.85 56.8267 408.601 56.688 411.08 56.688ZM417.261 70.312L416.689 70.286C416.585 70.0953 416.446 69.74 416.273 69.22C416.099 68.7 416.004 68.31 415.987 68.05C415.9 66.334 415.805 63.3613 415.701 59.132H413.881L413.959 57.65C414.357 57.3727 414.834 57.1213 415.389 56.896L417.495 53.568C418.171 53.6373 418.699 53.8193 419.081 54.114L419.055 56.584C420.147 56.6187 421.161 56.7227 422.097 56.896C422.097 57.5893 421.88 58.3347 421.447 59.132H419.029C418.959 62.772 418.916 65.502 418.899 67.322C419.592 67.3913 420.537 67.5907 421.733 67.92L421.707 69.272C421.412 69.4627 420.753 69.688 419.731 69.948C418.725 70.1907 417.902 70.312 417.261 70.312ZM428.562 56.688C428.891 56.688 429.099 56.6967 429.186 56.714C429.186 57.5633 429.038 58.352 428.744 59.08C428.674 62.824 428.631 65.632 428.614 67.504L430.642 67.738C430.642 68.4487 430.442 69.2027 430.044 70H423.57L423.336 68.57C424.41 68.1713 425.19 67.9113 425.676 67.79L425.39 59.366C424.367 59.262 423.613 59.132 423.128 58.976C423.128 58.5427 423.188 57.9187 423.31 57.104C424.332 56.8267 426.083 56.688 428.562 56.688ZM428.562 51.774C428.718 52.554 428.796 53.152 428.796 53.568C428.796 53.9667 428.761 54.4173 428.692 54.92C427.998 55.076 427.409 55.154 426.924 55.154C426.456 55.154 425.884 55.128 425.208 55.076C425.052 54.296 424.974 53.7067 424.974 53.308C424.974 52.892 425.008 52.4327 425.078 51.93C425.771 51.774 426.352 51.696 426.82 51.696C427.305 51.696 427.886 51.722 428.562 51.774ZM438.016 58.56C437.392 58.56 436.681 58.716 435.884 59.028C435.658 59.3747 435.442 59.99 435.234 60.874C435.043 61.7407 434.948 62.616 434.948 63.5C434.948 65.1293 435.19 66.2907 435.676 66.984C436.161 67.66 436.941 67.998 438.016 67.998C439.108 67.998 439.896 67.66 440.382 66.984C440.867 66.2907 441.11 65.112 441.11 63.448C441.11 61.7667 440.858 60.536 440.356 59.756C439.87 58.9587 439.09 58.56 438.016 58.56ZM438.016 56.48C440.044 56.48 441.673 57.104 442.904 58.352C444.152 59.5827 444.776 61.3073 444.776 63.526C444.776 65.7273 444.16 67.4087 442.93 68.57C441.699 69.7313 440.061 70.312 438.016 70.312C435.97 70.312 434.332 69.7313 433.102 68.57C431.888 67.4087 431.282 65.7273 431.282 63.526C431.282 61.3073 431.897 59.5827 433.128 58.352C434.358 57.104 435.988 56.48 438.016 56.48ZM453.8 56.48C455.533 56.48 456.79 56.9047 457.57 57.754C458.35 58.6033 458.74 59.7907 458.74 61.316C458.74 62.8413 458.653 64.904 458.48 67.504L460.534 67.738C460.534 68.4487 460.335 69.2027 459.936 70H453.462L453.228 68.57C454.043 68.2407 454.797 67.9807 455.49 67.79C455.438 65.7967 455.386 64.124 455.334 62.772C455.282 61.4027 455.152 60.4753 454.944 59.99C454.736 59.5047 454.277 59.262 453.566 59.262C452.491 59.262 451.529 59.4527 450.68 59.834C450.663 60.5793 450.611 61.8013 450.524 63.5C450.455 65.1813 450.411 66.516 450.394 67.504L452.422 67.738C452.422 68.4487 452.223 69.2027 451.824 70H445.35L445.116 68.57C445.983 68.2407 446.763 67.9807 447.456 67.79C447.439 66.75 447.378 65.3113 447.274 63.474C447.187 61.6367 447.135 60.276 447.118 59.392C446.477 59.3227 445.792 59.1927 445.064 59.002L445.194 57.13C446.407 56.8007 447.777 56.636 449.302 56.636C449.493 56.7573 449.753 57.13 450.082 57.754C450.671 57.4593 451.391 57.1733 452.24 56.896C453.089 56.6187 453.609 56.48 453.8 56.48Z" fill="#1935DA"/>
</svg>
