<svg width="472" height="149" viewBox="0 0 472 149" fill="none" xmlns="http://www.w3.org/2000/svg">
<rect y="11.9888" width="21.7627" height="61.94" fill="#0A28D8"/>
<rect x="23.437" y="11.9888" width="21.7627" height="61.94" fill="#0A28D8"/>
<rect x="26.7847" y="15.3369" width="15.0665" height="5.02216" fill="white"/>
<rect x="3.34814" y="15.3369" width="15.0665" height="5.02216" fill="white"/>
<rect x="26.7847" y="65.5586" width="15.0665" height="5.02216" fill="white"/>
<rect x="43.8237" y="23.0928" width="21.7627" height="61.94" transform="rotate(-36.9853 43.8237 23.0928)" fill="#0A28D8"/>
<rect x="48.5127" y="23.7534" width="15.0665" height="5.02216" transform="rotate(-36.9853 48.5127 23.7534)" fill="white"/>
<rect x="78.7261" y="63.8691" width="15.0665" height="5.02216" transform="rotate(-36.9853 78.7261 63.8691)" fill="white"/>
<rect x="3.34814" y="65.5586" width="15.0665" height="5.02216" fill="white"/>
<path d="M121.172 18.936L120.056 18.9L119.012 14.58C117.62 14.34 116.576 14.22 115.88 14.22C114.512 14.22 112.976 14.496 111.272 15.048C110.768 15.984 110.372 17.184 110.084 18.648C109.796 20.112 109.652 21.492 109.652 22.788C109.652 29.412 111.56 32.724 115.376 32.724C117.008 32.724 118.304 32.484 119.264 32.004L120.02 27.612C121.532 27.612 122.684 27.696 123.476 27.864C123.86 30.48 124.052 32.604 124.052 34.236C123.476 34.668 122.312 35.148 120.56 35.676C118.832 36.204 117.128 36.468 115.448 36.468C108.296 36.468 104.72 32.052 104.72 23.22C104.72 19.02 105.584 15.828 107.312 13.644C109.064 11.46 111.848 10.368 115.664 10.368C117.56 10.368 119.24 10.644 120.704 11.196C122 11.676 123.104 12.204 124.016 12.78C124.016 14.412 123.836 16.38 123.476 18.684C122.804 18.852 122.036 18.936 121.172 18.936ZM143.954 11.196L143.99 11.556C143.99 12.54 143.834 13.38 143.522 14.076C143.21 14.316 142.718 14.508 142.046 14.652L148.058 32.436L151.478 32.868C151.478 33.852 151.202 34.896 150.65 36H141.902L141.578 34.02C142.586 33.636 143.246 33.384 143.558 33.264L142.118 29.196H134.018C133.298 31.332 132.914 32.448 132.866 32.544L135.35 32.868C135.35 33.372 135.254 33.96 135.062 34.632C134.87 35.28 134.69 35.736 134.522 36H125.774L125.45 34.02C126.53 33.564 127.502 33.228 128.366 33.012L134.414 14.508C132.806 14.268 131.594 13.956 130.778 13.572C130.778 12.876 130.886 12.264 131.102 11.736C131.606 11.568 132.782 11.376 134.63 11.16C136.502 10.92 138.278 10.8 139.958 10.8C141.662 10.8 142.994 10.932 143.954 11.196ZM139.31 21.096L138.266 16.344H137.906L136.754 21.312L135.062 25.812H141.074L139.31 21.096ZM163.259 10.8C166.307 10.8 168.575 11.328 170.063 12.384C171.551 13.44 172.295 15.36 172.295 18.144C172.295 20.472 171.575 22.416 170.135 23.976C168.695 25.512 166.391 26.28 163.223 26.28C162.191 26.28 161.375 26.268 160.775 26.244L160.703 32.58L163.331 32.868C163.331 33.924 163.055 34.968 162.503 36H153.611L153.287 34.02C154.535 33.516 155.543 33.168 156.311 32.976C156.311 32.904 156.203 26.556 155.987 13.932C155.603 13.836 154.607 13.524 152.999 12.996L153.287 10.8H163.259ZM162.467 22.86C164.075 22.836 165.323 22.392 166.211 21.528C167.099 20.664 167.543 19.548 167.543 18.18C167.543 16.812 167.147 15.84 166.355 15.264C165.587 14.664 164.375 14.364 162.719 14.364C162.071 14.364 161.459 14.376 160.883 14.4C160.835 18.192 160.811 21.024 160.811 22.896L162.467 22.86ZM183.174 32.544C185.958 32.544 187.35 31.356 187.35 28.98C187.35 27.972 186.822 27.12 185.766 26.424C184.998 25.896 183.942 25.332 182.598 24.732C181.278 24.108 180.282 23.616 179.61 23.256C178.962 22.896 178.206 22.392 177.342 21.744C175.686 20.472 174.858 18.888 174.858 16.992C174.858 15.096 175.59 13.524 177.054 12.276C178.542 11.004 180.546 10.368 183.066 10.368C185.586 10.368 188.274 11.172 191.13 12.78C191.13 14.508 190.95 16.38 190.59 18.396C189.822 18.636 188.682 18.756 187.17 18.756L186.126 14.472C185.238 14.208 184.266 14.076 183.21 14.076C182.154 14.076 181.338 14.304 180.762 14.76C180.186 15.216 179.898 15.9 179.898 16.812C179.898 17.7 180.342 18.504 181.23 19.224C182.142 19.92 183.234 20.568 184.506 21.168C185.778 21.744 186.654 22.152 187.134 22.392C187.614 22.632 188.226 22.992 188.97 23.472C189.714 23.952 190.278 24.408 190.662 24.84C191.646 25.992 192.138 27.276 192.138 28.692C192.138 31.188 191.31 33.108 189.654 34.452C187.998 35.796 185.838 36.468 183.174 36.468C181.758 36.468 180.198 36.228 178.494 35.748C176.814 35.244 175.386 34.608 174.21 33.84C174.258 32.376 174.45 30.396 174.786 27.9C175.746 27.708 176.898 27.612 178.242 27.612L178.998 31.932C180.318 32.34 181.71 32.544 183.174 32.544ZM194.523 17.352C194.139 15.696 193.947 14.388 193.947 13.428C193.947 12.468 193.983 11.592 194.055 10.8H214.971C215.067 11.952 215.115 12.732 215.115 13.14C215.115 14.172 214.923 15.576 214.539 17.352C213.843 17.544 212.703 17.64 211.119 17.64L210.291 14.004H207.231C207.207 14.916 207.099 21.096 206.907 32.544L209.499 32.868C209.499 33.972 209.223 35.016 208.671 36H199.923L199.599 34.02C201.255 33.396 202.299 33.048 202.731 32.976C202.731 32.88 202.587 26.568 202.299 14.04H198.735L197.943 17.568C196.527 17.568 195.387 17.496 194.523 17.352ZM227.466 32.616C231.45 32.616 233.442 29.556 233.442 23.436C233.442 17.316 231.45 14.256 227.466 14.256C225.738 14.256 224.226 14.52 222.93 15.048C221.826 17.352 221.274 20.028 221.274 23.076C221.274 26.1 221.73 28.452 222.642 30.132C223.554 31.788 225.162 32.616 227.466 32.616ZM227.466 10.368C231.474 10.368 234.294 11.424 235.926 13.536C237.558 15.624 238.374 18.828 238.374 23.148C238.374 25.86 238.026 28.176 237.33 30.096C236.634 32.016 235.458 33.552 233.802 34.704C232.146 35.856 230.034 36.432 227.466 36.432C223.554 36.432 220.71 35.34 218.934 33.156C217.182 30.972 216.306 27.792 216.306 23.616C216.306 14.784 220.026 10.368 227.466 10.368ZM264.455 14.004L264.347 36H259.739L247.859 16.632C247.763 23.664 247.703 28.968 247.679 32.544L250.163 32.868C250.163 33.852 249.887 34.896 249.335 36H240.587L240.263 34.02C241.607 33.468 242.615 33.12 243.287 32.976C243.287 32.904 243.179 26.556 242.963 13.932L239.975 12.996L240.263 10.8H249.623L260.099 29.592L259.559 13.932L256.571 12.996L256.859 10.8H266.219C266.195 10.8 266.195 10.824 266.219 10.872C266.267 10.92 266.315 11.028 266.363 11.196C266.435 11.34 266.507 11.52 266.579 11.736C266.723 12.12 266.819 12.756 266.867 13.644C265.643 13.836 264.839 13.956 264.455 14.004ZM276.124 14.4C276.124 17.136 276.1 19.488 276.052 21.456H279.724L280.084 18.972C281.308 18.972 282.496 19.272 283.648 19.872V27.072L281.272 27.18C280.696 26.316 280.36 25.56 280.264 24.912H276.016C275.968 28.272 275.944 30.804 275.944 32.508H282.1L282.892 29.376C284.38 29.376 285.508 29.448 286.276 29.592C286.636 30.96 286.816 32.208 286.816 33.336C286.816 34.44 286.78 35.328 286.708 36H268.852L268.528 34.02C270.088 33.42 271.096 33.072 271.552 32.976C271.528 31.56 271.504 29.568 271.48 27C271.384 21.24 271.3 16.884 271.228 13.932L268.24 12.996L268.528 10.8H286.204C286.276 11.448 286.312 12.264 286.312 13.248C286.312 14.208 286.132 15.552 285.772 17.28C285.028 17.52 283.9 17.64 282.388 17.64L281.56 14.4H276.124ZM316.606 11.196L316.642 11.556C316.642 12.54 316.486 13.38 316.174 14.076C315.862 14.316 315.37 14.508 314.698 14.652L320.71 32.436L324.13 32.868C324.13 33.852 323.854 34.896 323.302 36H314.554L314.23 34.02C315.238 33.636 315.898 33.384 316.21 33.264L314.77 29.196H306.67C305.95 31.332 305.566 32.448 305.518 32.544L308.002 32.868C308.002 33.372 307.906 33.96 307.714 34.632C307.522 35.28 307.342 35.736 307.174 36H298.426L298.102 34.02C299.182 33.564 300.154 33.228 301.018 33.012L307.066 14.508C305.458 14.268 304.246 13.956 303.43 13.572C303.43 12.876 303.538 12.264 303.754 11.736C304.258 11.568 305.434 11.376 307.282 11.16C309.154 10.92 310.93 10.8 312.61 10.8C314.314 10.8 315.646 10.932 316.606 11.196ZM311.962 21.096L310.918 16.344H310.558L309.406 21.312L307.714 25.812H313.726L311.962 21.096ZM334.651 10.8C338.851 10.8 341.635 11.4 343.003 12.6C344.251 13.68 344.875 15.348 344.875 17.604C344.875 21.108 343.051 23.496 339.403 24.768L344.587 32.58L347.683 32.904C347.683 33.936 347.407 34.968 346.855 36H341.635L334.579 25.236H333.427L333.319 32.58L335.947 32.868C335.947 33.852 335.671 34.896 335.119 36H326.227L325.903 34.02C327.343 33.444 328.351 33.096 328.927 32.976C328.879 30.024 328.819 26.46 328.747 22.284C328.675 18.108 328.627 15.312 328.603 13.896L325.615 12.996C325.639 12.444 325.747 11.712 325.939 10.8H334.651ZM337.495 14.652C336.751 14.484 335.755 14.4 334.507 14.4H333.499C333.451 17.712 333.427 20.196 333.427 21.852L335.191 21.816C336.607 21.792 337.723 21.504 338.539 20.952C339.379 20.376 339.799 19.272 339.799 17.64C339.799 16.008 339.031 15.012 337.495 14.652ZM365.332 18.936L364.216 18.9L363.172 14.58C361.78 14.34 360.736 14.22 360.04 14.22C358.672 14.22 357.136 14.496 355.432 15.048C354.928 15.984 354.532 17.184 354.244 18.648C353.956 20.112 353.812 21.492 353.812 22.788C353.812 29.412 355.72 32.724 359.536 32.724C361.168 32.724 362.464 32.484 363.424 32.004L364.18 27.612C365.692 27.612 366.844 27.696 367.636 27.864C368.02 30.48 368.212 32.604 368.212 34.236C367.636 34.668 366.472 35.148 364.72 35.676C362.992 36.204 361.288 36.468 359.608 36.468C352.456 36.468 348.88 32.052 348.88 23.22C348.88 19.02 349.744 15.828 351.472 13.644C353.224 11.46 356.008 10.368 359.824 10.368C361.72 10.368 363.4 10.644 364.864 11.196C366.16 11.676 367.264 12.204 368.176 12.78C368.176 14.412 367.996 16.38 367.636 18.684C366.964 18.852 366.196 18.936 365.332 18.936ZM387.862 32.976L387.718 24.48H378.286C378.238 28.08 378.214 30.768 378.214 32.544L380.698 32.868C380.698 33.852 380.422 34.896 379.87 36H371.122L370.798 34.02C372.142 33.468 373.15 33.12 373.822 32.976C373.822 32.904 373.714 26.556 373.498 13.932L370.51 12.996L370.798 10.8H380.122C380.506 11.448 380.734 12.396 380.806 13.644C379.582 13.836 378.778 13.956 378.394 14.004C378.346 17.124 378.322 19.464 378.322 21.024H387.646L387.538 13.932L384.55 12.996L384.838 10.8H394.162C394.546 11.448 394.774 12.396 394.846 13.644C393.622 13.836 392.818 13.956 392.434 14.004L392.254 32.544L394.738 32.868C394.738 33.852 394.462 34.896 393.91 36H385.162L384.838 34.02C386.182 33.468 387.19 33.12 387.862 32.976ZM407.847 10.8C407.823 10.8 407.823 10.824 407.847 10.872C407.895 10.92 407.943 11.028 407.991 11.196C408.063 11.34 408.135 11.52 408.207 11.736C408.351 12.12 408.447 12.756 408.495 13.644C407.271 13.836 406.467 13.956 406.083 14.004L405.903 32.544L408.387 32.868C408.387 33.852 408.111 34.896 407.559 36H398.811L398.487 34.02C399.831 33.468 400.839 33.12 401.511 32.976C401.487 31.56 401.451 29.568 401.403 27C401.331 21.24 401.259 16.884 401.187 13.932L398.199 12.996L398.487 10.8H407.847ZM423.323 29.268C423.755 27.78 425.363 22.68 428.147 13.968L424.943 12.996L425.231 10.8H434.555C434.987 11.664 435.215 12.612 435.239 13.644L433.007 13.968L425.843 36H421.055L413.315 13.968L410.111 12.996L410.399 10.8H419.723C420.155 11.664 420.383 12.612 420.407 13.644C419.375 13.812 418.667 13.92 418.283 13.968L423.323 29.268ZM445.155 14.4C445.155 17.136 445.131 19.488 445.083 21.456H448.755L449.115 18.972C450.339 18.972 451.527 19.272 452.679 19.872V27.072L450.303 27.18C449.727 26.316 449.391 25.56 449.295 24.912H445.047C444.999 28.272 444.975 30.804 444.975 32.508H451.131L451.923 29.376C453.411 29.376 454.539 29.448 455.307 29.592C455.667 30.96 455.847 32.208 455.847 33.336C455.847 34.44 455.811 35.328 455.739 36H437.883L437.559 34.02C439.119 33.42 440.127 33.072 440.583 32.976C440.559 31.56 440.535 29.568 440.511 27C440.415 21.24 440.331 16.884 440.259 13.932L437.271 12.996L437.559 10.8H455.235C455.307 11.448 455.343 12.264 455.343 13.248C455.343 14.208 455.163 15.552 454.803 17.28C454.059 17.52 452.931 17.64 451.419 17.64L450.591 14.4H445.155Z" fill="#0A28D8"/>
<path d="M118.532 52.708L118.56 52.988C118.56 53.7533 118.439 54.4067 118.196 54.948C117.953 55.1347 117.571 55.284 117.048 55.396L121.724 69.228L124.384 69.564C124.384 70.3293 124.169 71.1413 123.74 72H116.936L116.684 70.46C117.468 70.1613 117.981 69.9653 118.224 69.872L117.104 66.708H110.804C110.244 68.3693 109.945 69.2373 109.908 69.312L111.84 69.564C111.84 69.956 111.765 70.4133 111.616 70.936C111.467 71.44 111.327 71.7947 111.196 72H104.392L104.14 70.46C104.98 70.1053 105.736 69.844 106.408 69.676L111.112 55.284C109.861 55.0973 108.919 54.8547 108.284 54.556C108.284 54.0147 108.368 53.5387 108.536 53.128C108.928 52.9973 109.843 52.848 111.28 52.68C112.736 52.4933 114.117 52.4 115.424 52.4C116.749 52.4 117.785 52.5027 118.532 52.708ZM114.92 60.408L114.108 56.712H113.828L112.932 60.576L111.616 64.076H116.292L114.92 60.408ZM134.891 57.44C136.758 57.44 138.111 57.8973 138.951 58.812C139.791 59.7267 140.211 61.0053 140.211 62.648C140.211 64.2907 140.118 66.512 139.931 69.312L142.143 69.564C142.143 70.3293 141.929 71.1413 141.499 72H134.527L134.275 70.46C135.153 70.1053 135.965 69.8253 136.711 69.62C136.655 67.4733 136.599 65.672 136.543 64.216C136.487 62.7413 136.347 61.7427 136.123 61.22C135.899 60.6973 135.405 60.436 134.639 60.436C133.482 60.436 132.446 60.6413 131.531 61.052C131.513 61.8547 131.457 63.1707 131.363 65C131.289 66.8107 131.242 68.248 131.223 69.312L133.407 69.564C133.407 70.3293 133.193 71.1413 132.763 72H125.791L125.539 70.46C126.473 70.1053 127.313 69.8253 128.059 69.62C128.041 68.5 127.975 66.9507 127.863 64.972C127.77 62.9933 127.714 61.528 127.695 60.576C127.005 60.5013 126.267 60.3613 125.483 60.156L125.623 58.14C126.93 57.7853 128.405 57.608 130.047 57.608C130.253 57.7387 130.533 58.14 130.887 58.812C131.522 58.4947 132.297 58.1867 133.211 57.888C134.126 57.5893 134.686 57.44 134.891 57.44ZM155.359 72.336C153.772 72.336 152.54 72.0093 151.663 71.356C150.804 70.7027 150.375 69.6013 150.375 68.052C150.375 66.5773 150.888 65.3733 151.915 64.44C152.512 63.8987 153.343 63.5813 154.407 63.488C155.471 63.3947 156.936 63.348 158.803 63.348V62.9C158.803 61.7613 158.616 60.9307 158.243 60.408C157.888 59.8667 157.253 59.596 156.339 59.596C155.872 59.596 155.452 59.6893 155.079 59.876L154.407 62.312L152.335 62.256C151.868 61.5467 151.616 60.4173 151.579 58.868C151.952 58.6813 152.829 58.4013 154.211 58.028C155.592 57.636 156.479 57.44 156.871 57.44C158.887 57.44 160.352 57.86 161.267 58.7C162.181 59.5213 162.639 60.8373 162.639 62.648C162.639 64.44 162.555 66.8107 162.387 69.76C163.451 69.8533 164.272 70.012 164.851 70.236C164.869 70.46 164.879 70.7307 164.879 71.048L164.851 71.664C163.507 72.112 162.153 72.336 160.791 72.336C160.436 72.336 160.175 72.3267 160.007 72.308C159.727 71.748 159.559 71.076 159.503 70.292H159.363C159.008 70.628 158.383 71.0573 157.487 71.58C156.609 72.084 155.9 72.336 155.359 72.336ZM153.959 68.22C153.959 68.836 154.145 69.2933 154.519 69.592C154.911 69.872 155.349 70.012 155.835 70.012C156.32 70.012 156.899 69.7973 157.571 69.368C158.243 68.92 158.784 68.5187 159.195 68.164L159.055 65.588C157.58 65.6627 156.469 65.8027 155.723 66.008C154.547 66.2507 153.959 66.988 153.959 68.22ZM177.732 51.196C178.087 51.196 178.311 51.2053 178.404 51.224C178.404 52.1947 178.283 53.044 178.04 53.772C177.966 55.788 177.872 58.6627 177.76 62.396C177.667 66.1107 177.602 68.5653 177.564 69.76C178.666 69.9093 179.487 70.068 180.028 70.236V71.58C178.852 72.084 177.238 72.336 175.184 72.336C175.072 72.1307 174.923 71.6267 174.736 70.824C173.019 71.7573 171.778 72.2613 171.012 72.336C169.108 72.336 167.68 71.6453 166.728 70.264C165.795 68.8827 165.328 67.1093 165.328 64.944C165.328 62.76 165.804 60.9307 166.756 59.456C167.708 57.9627 169.118 57.216 170.984 57.216C172.011 57.216 173.094 57.5333 174.232 58.168L174.092 54.08C173.215 53.9867 172.478 53.8467 171.88 53.66C171.88 53.1933 171.946 52.5213 172.076 51.644C173.178 51.3453 175.063 51.196 177.732 51.196ZM171.432 59.96C169.827 59.96 169.024 61.5093 169.024 64.608C169.024 66.3813 169.342 67.716 169.976 68.612C170.331 69.1347 170.788 69.396 171.348 69.396C172.3 69.396 173.374 69.0693 174.568 68.416L174.316 61.192C173.252 60.3707 172.291 59.96 171.432 59.96ZM188.664 67.8L189.7 63.628L191.184 60.044C190.55 59.932 189.766 59.6893 188.832 59.316L189.084 57.776H196.056C196.486 58.6347 196.7 59.4467 196.7 60.212C195.972 60.324 195.244 60.3987 194.516 60.436C194.143 61.6867 193.406 63.6187 192.304 66.232C191.222 68.8453 190.494 70.768 190.12 72H186.508L182.056 60.464L179.872 60.212C179.872 59.4467 180.087 58.6347 180.516 57.776H187.488L187.74 59.316C186.975 59.6707 186.331 59.9133 185.808 60.044L187.152 63.6L188.132 67.8H188.664ZM202.8 72.336C201.213 72.336 199.981 72.0093 199.104 71.356C198.245 70.7027 197.816 69.6013 197.816 68.052C197.816 66.5773 198.329 65.3733 199.356 64.44C199.953 63.8987 200.784 63.5813 201.848 63.488C202.912 63.3947 204.377 63.348 206.244 63.348V62.9C206.244 61.7613 206.057 60.9307 205.684 60.408C205.329 59.8667 204.695 59.596 203.78 59.596C203.313 59.596 202.893 59.6893 202.52 59.876L201.848 62.312L199.776 62.256C199.309 61.5467 199.057 60.4173 199.02 58.868C199.393 58.6813 200.271 58.4013 201.652 58.028C203.033 57.636 203.92 57.44 204.312 57.44C206.328 57.44 207.793 57.86 208.708 58.7C209.623 59.5213 210.08 60.8373 210.08 62.648C210.08 64.44 209.996 66.8107 209.828 69.76C210.892 69.8533 211.713 70.012 212.292 70.236C212.311 70.46 212.32 70.7307 212.32 71.048L212.292 71.664C210.948 72.112 209.595 72.336 208.232 72.336C207.877 72.336 207.616 72.3267 207.448 72.308C207.168 71.748 207 71.076 206.944 70.292H206.804C206.449 70.628 205.824 71.0573 204.928 71.58C204.051 72.084 203.341 72.336 202.8 72.336ZM201.4 68.22C201.4 68.836 201.587 69.2933 201.96 69.592C202.352 69.872 202.791 70.012 203.276 70.012C203.761 70.012 204.34 69.7973 205.012 69.368C205.684 68.92 206.225 68.5187 206.636 68.164L206.496 65.588C205.021 65.6627 203.911 65.8027 203.164 66.008C201.988 66.2507 201.4 66.988 201.4 68.22ZM221.954 57.44C223.82 57.44 225.174 57.8973 226.014 58.812C226.854 59.7267 227.274 61.0053 227.274 62.648C227.274 64.2907 227.18 66.512 226.994 69.312L229.206 69.564C229.206 70.3293 228.991 71.1413 228.562 72H221.59L221.338 70.46C222.215 70.1053 223.027 69.8253 223.774 69.62C223.718 67.4733 223.662 65.672 223.606 64.216C223.55 62.7413 223.41 61.7427 223.186 61.22C222.962 60.6973 222.467 60.436 221.702 60.436C220.544 60.436 219.508 60.6413 218.594 61.052C218.575 61.8547 218.519 63.1707 218.426 65C218.351 66.8107 218.304 68.248 218.286 69.312L220.47 69.564C220.47 70.3293 220.255 71.1413 219.826 72H212.854L212.602 70.46C213.535 70.1053 214.375 69.8253 215.122 69.62C215.103 68.5 215.038 66.9507 214.926 64.972C214.832 62.9933 214.776 61.528 214.758 60.576C214.067 60.5013 213.33 60.3613 212.546 60.156L212.686 58.14C213.992 57.7853 215.467 57.608 217.11 57.608C217.315 57.7387 217.595 58.14 217.95 58.812C218.584 58.4947 219.359 58.1867 220.274 57.888C221.188 57.5893 221.748 57.44 221.954 57.44ZM237.612 59.764L237.164 59.736C236.118 59.736 235.278 60.1 234.644 60.828C234.028 61.5373 233.72 62.7413 233.72 64.44C233.72 66.12 233.953 67.3987 234.42 68.276C234.905 69.1533 235.829 69.592 237.192 69.592C237.826 69.592 239.17 69.1627 241.224 68.304C241.69 68.9573 241.942 69.6387 241.98 70.348C240.953 70.9827 239.945 71.4773 238.956 71.832C237.985 72.1867 237.294 72.364 236.884 72.364C234.588 72.364 232.87 71.7387 231.732 70.488C230.593 69.2187 230.024 67.4453 230.024 65.168C230.024 60.016 232.348 57.44 236.996 57.44C237.798 57.44 238.62 57.5427 239.46 57.748C240.318 57.9347 240.99 58.1773 241.476 58.476C241.42 60.3427 241.214 61.696 240.86 62.536C240.244 62.6853 239.376 62.76 238.256 62.76L237.612 59.764ZM250.539 69.592C251.173 69.592 252.461 69.1533 254.403 68.276C254.813 68.8733 255.121 69.564 255.327 70.348C254.3 70.9827 253.292 71.4773 252.303 71.832C251.332 72.168 250.641 72.336 250.231 72.336C247.972 72.336 246.255 71.7107 245.079 70.46C243.921 69.2093 243.343 67.436 243.343 65.14C243.343 62.8253 243.921 60.968 245.079 59.568C246.236 58.1493 247.953 57.44 250.231 57.44C252.041 57.44 253.423 58.028 254.375 59.204C255.327 60.38 255.803 61.9107 255.803 63.796C255.803 64.188 255.579 64.636 255.131 65.14L247.067 65C247.104 66.4933 247.384 67.632 247.907 68.416C248.429 69.2 249.307 69.592 250.539 69.592ZM249.979 59.764C249.269 59.764 248.607 59.904 247.991 60.184C247.561 61.08 247.291 61.9107 247.179 62.676C248.635 62.62 250.287 62.5827 252.135 62.564C252.041 60.6973 251.323 59.764 249.979 59.764ZM274.996 58.644L275.024 59.512C275.024 60.968 274.912 61.92 274.688 62.368C274.072 62.592 273.214 62.704 272.112 62.704L271.216 59.876C270.974 59.7827 270.638 59.736 270.208 59.736C269.779 59.736 269.424 59.8667 269.144 60.128C268.883 60.3893 268.752 60.6973 268.752 61.052C268.752 61.4067 268.892 61.7333 269.172 62.032C269.452 62.312 269.742 62.536 270.04 62.704C270.339 62.872 270.768 63.096 271.328 63.376C271.907 63.6373 272.336 63.8427 272.616 63.992C272.915 64.1413 273.288 64.3653 273.736 64.664C274.203 64.9627 274.558 65.2427 274.8 65.504C275.398 66.2133 275.696 66.988 275.696 67.828C275.696 69.2653 275.146 70.376 274.044 71.16C272.962 71.944 271.627 72.336 270.04 72.336C269.2 72.336 268.276 72.1867 267.268 71.888C266.279 71.5893 265.439 71.188 264.748 70.684C264.748 69.34 264.879 68.0893 265.14 66.932C265.887 66.8387 266.494 66.792 266.96 66.792C267.427 66.792 267.744 66.8013 267.912 66.82L268.248 69.536C268.715 69.704 269.275 69.788 269.928 69.788C270.582 69.788 271.095 69.6573 271.468 69.396C271.86 69.1347 272.056 68.7707 272.056 68.304C272.056 67.8187 271.842 67.4173 271.412 67.1C270.983 66.7827 270.395 66.456 269.648 66.12C268.902 65.7653 268.323 65.476 267.912 65.252C267.502 65.0093 267.063 64.7013 266.596 64.328C265.644 63.6 265.168 62.704 265.168 61.64C265.168 60.3147 265.626 59.288 266.54 58.56C267.474 57.8133 268.724 57.44 270.292 57.44C271.86 57.44 273.428 57.8413 274.996 58.644ZM284.8 69.592C285.435 69.592 286.723 69.1533 288.664 68.276C289.075 68.8733 289.383 69.564 289.588 70.348C288.562 70.9827 287.554 71.4773 286.564 71.832C285.594 72.168 284.903 72.336 284.492 72.336C282.234 72.336 280.516 71.7107 279.34 70.46C278.183 69.2093 277.604 67.436 277.604 65.14C277.604 62.8253 278.183 60.968 279.34 59.568C280.498 58.1493 282.215 57.44 284.492 57.44C286.303 57.44 287.684 58.028 288.636 59.204C289.588 60.38 290.064 61.9107 290.064 63.796C290.064 64.188 289.84 64.636 289.392 65.14L281.328 65C281.366 66.4933 281.646 67.632 282.168 68.416C282.691 69.2 283.568 69.592 284.8 69.592ZM284.24 59.764C283.531 59.764 282.868 59.904 282.252 60.184C281.823 61.08 281.552 61.9107 281.44 62.676C282.896 62.62 284.548 62.5827 286.396 62.564C286.303 60.6973 285.584 59.764 284.24 59.764ZM296.945 72.336C295.358 72.336 294.126 72.0093 293.249 71.356C292.39 70.7027 291.961 69.6013 291.961 68.052C291.961 66.5773 292.474 65.3733 293.501 64.44C294.098 63.8987 294.929 63.5813 295.993 63.488C297.057 63.3947 298.522 63.348 300.389 63.348V62.9C300.389 61.7613 300.202 60.9307 299.829 60.408C299.474 59.8667 298.839 59.596 297.925 59.596C297.458 59.596 297.038 59.6893 296.665 59.876L295.993 62.312L293.921 62.256C293.454 61.5467 293.202 60.4173 293.165 58.868C293.538 58.6813 294.415 58.4013 295.797 58.028C297.178 57.636 298.065 57.44 298.457 57.44C300.473 57.44 301.938 57.86 302.853 58.7C303.767 59.5213 304.225 60.8373 304.225 62.648C304.225 64.44 304.141 66.8107 303.973 69.76C305.037 69.8533 305.858 70.012 306.437 70.236C306.455 70.46 306.465 70.7307 306.465 71.048L306.437 71.664C305.093 72.112 303.739 72.336 302.377 72.336C302.022 72.336 301.761 72.3267 301.593 72.308C301.313 71.748 301.145 71.076 301.089 70.292H300.949C300.594 70.628 299.969 71.0573 299.073 71.58C298.195 72.084 297.486 72.336 296.945 72.336ZM295.545 68.22C295.545 68.836 295.731 69.2933 296.105 69.592C296.497 69.872 296.935 70.012 297.421 70.012C297.906 70.012 298.485 69.7973 299.157 69.368C299.829 68.92 300.37 68.5187 300.781 68.164L300.641 65.588C299.166 65.6627 298.055 65.8027 297.309 66.008C296.133 66.2507 295.545 66.988 295.545 68.22ZM315.034 60.464C314.997 60.3707 314.81 60.324 314.474 60.324C314.138 60.324 313.56 60.576 312.738 61.08C312.664 64.7387 312.617 67.4827 312.598 69.312L314.782 69.592C314.782 70.3947 314.568 71.1973 314.138 72H307.166L306.914 70.46C308.072 70.0307 308.912 69.7507 309.434 69.62L309.126 60.548C308.156 60.4733 307.344 60.3333 306.69 60.128L306.886 58.112C307.39 57.888 309.21 57.7387 312.346 57.664C312.514 57.832 312.598 58.1587 312.598 58.644C314.241 57.8413 315.277 57.44 315.706 57.44C316.154 57.44 316.696 57.552 317.33 57.776C317.984 57.9813 318.478 58.2053 318.814 58.448V58.924C318.814 60.4547 318.628 61.8733 318.254 63.18C317.937 63.3107 317.517 63.376 316.994 63.376C316.472 63.376 315.986 63.348 315.538 63.292C315.482 63.0493 315.314 62.1067 315.034 60.464ZM327.08 59.764L326.632 59.736C325.587 59.736 324.747 60.1 324.112 60.828C323.496 61.5373 323.188 62.7413 323.188 64.44C323.188 66.12 323.422 67.3987 323.888 68.276C324.374 69.1533 325.298 69.592 326.66 69.592C327.295 69.592 328.639 69.1627 330.692 68.304C331.159 68.9573 331.411 69.6387 331.448 70.348C330.422 70.9827 329.414 71.4773 328.424 71.832C327.454 72.1867 326.763 72.364 326.352 72.364C324.056 72.364 322.339 71.7387 321.2 70.488C320.062 69.2187 319.492 67.4453 319.492 65.168C319.492 60.016 321.816 57.44 326.464 57.44C327.267 57.44 328.088 57.5427 328.928 57.748C329.787 57.9347 330.459 58.1773 330.944 58.476C330.888 60.3427 330.683 61.696 330.328 62.536C329.712 62.6853 328.844 62.76 327.724 62.76L327.08 59.764ZM338.103 51.196L338.775 51.224C338.775 52.1947 338.654 53.044 338.411 53.772C338.374 55.9 338.355 57.496 338.355 58.56C338.953 58.2987 339.634 58.0467 340.399 57.804C341.165 57.5613 341.641 57.44 341.827 57.44C343.731 57.44 345.094 57.8693 345.915 58.728C346.755 59.5867 347.175 60.94 347.175 62.788C347.175 62.9747 347.082 65.1493 346.895 69.312L349.079 69.592C349.079 70.3947 348.865 71.1973 348.435 72H341.463L341.211 70.46C342.462 69.956 343.265 69.6853 343.619 69.648C343.582 67.632 343.535 65.8493 343.479 64.3C343.423 62.732 343.274 61.696 343.031 61.192C342.789 60.688 342.397 60.436 341.855 60.436C341.333 60.436 340.726 60.5013 340.035 60.632C339.363 60.744 338.841 60.884 338.467 61.052L338.159 69.312L340.343 69.564C340.343 70.3293 340.129 71.1413 339.699 72H332.727L332.475 70.46C333.633 70.0307 334.473 69.7507 334.995 69.62L334.463 54.08C333.586 53.9867 332.849 53.8467 332.251 53.66C332.251 53.1933 332.317 52.5213 332.447 51.644C333.549 51.3453 335.434 51.196 338.103 51.196ZM367.418 58.644L367.446 59.512C367.446 60.968 367.334 61.92 367.11 62.368C366.494 62.592 365.635 62.704 364.534 62.704L363.638 59.876C363.395 59.7827 363.059 59.736 362.63 59.736C362.201 59.736 361.846 59.8667 361.566 60.128C361.305 60.3893 361.174 60.6973 361.174 61.052C361.174 61.4067 361.314 61.7333 361.594 62.032C361.874 62.312 362.163 62.536 362.462 62.704C362.761 62.872 363.19 63.096 363.75 63.376C364.329 63.6373 364.758 63.8427 365.038 63.992C365.337 64.1413 365.71 64.3653 366.158 64.664C366.625 64.9627 366.979 65.2427 367.222 65.504C367.819 66.2133 368.118 66.988 368.118 67.828C368.118 69.2653 367.567 70.376 366.466 71.16C365.383 71.944 364.049 72.336 362.462 72.336C361.622 72.336 360.698 72.1867 359.69 71.888C358.701 71.5893 357.861 71.188 357.17 70.684C357.17 69.34 357.301 68.0893 357.562 66.932C358.309 66.8387 358.915 66.792 359.382 66.792C359.849 66.792 360.166 66.8013 360.334 66.82L360.67 69.536C361.137 69.704 361.697 69.788 362.35 69.788C363.003 69.788 363.517 69.6573 363.89 69.396C364.282 69.1347 364.478 68.7707 364.478 68.304C364.478 67.8187 364.263 67.4173 363.834 67.1C363.405 66.7827 362.817 66.456 362.07 66.12C361.323 65.7653 360.745 65.476 360.334 65.252C359.923 65.0093 359.485 64.7013 359.018 64.328C358.066 63.6 357.59 62.704 357.59 61.64C357.59 60.3147 358.047 59.288 358.962 58.56C359.895 57.8133 361.146 57.44 362.714 57.44C364.282 57.44 365.85 57.8413 367.418 58.644ZM377.166 59.68C376.494 59.68 375.729 59.848 374.87 60.184C374.628 60.5573 374.394 61.22 374.17 62.172C373.965 63.1053 373.862 64.048 373.862 65C373.862 66.7547 374.124 68.0053 374.646 68.752C375.169 69.48 376.009 69.844 377.166 69.844C378.342 69.844 379.192 69.48 379.714 68.752C380.237 68.0053 380.498 66.736 380.498 64.944C380.498 63.1333 380.228 61.808 379.686 60.968C379.164 60.1093 378.324 59.68 377.166 59.68ZM377.166 57.44C379.35 57.44 381.105 58.112 382.43 59.456C383.774 60.7813 384.446 62.6387 384.446 65.028C384.446 67.3987 383.784 69.2093 382.458 70.46C381.133 71.7107 379.369 72.336 377.166 72.336C374.964 72.336 373.2 71.7107 371.874 70.46C370.568 69.2093 369.914 67.3987 369.914 65.028C369.914 62.6387 370.577 60.7813 371.902 59.456C373.228 58.112 374.982 57.44 377.166 57.44ZM390.357 51.196C390.711 51.196 390.935 51.2053 391.029 51.224C391.029 52.1947 390.907 53.044 390.665 53.772C390.646 54.9293 390.618 56.5627 390.581 58.672C390.506 63.3013 390.45 66.848 390.413 69.312L392.597 69.564C392.597 70.3293 392.382 71.1413 391.953 72H384.981L384.729 70.46C385.886 70.0307 386.726 69.7507 387.249 69.62L386.717 54.08C385.839 53.9867 385.102 53.8467 384.505 53.66C384.505 52.9693 384.57 52.2973 384.701 51.644C385.802 51.3453 387.687 51.196 390.357 51.196ZM406.482 57.664C406.837 57.664 407.061 57.6733 407.154 57.692C407.154 58.644 406.996 59.4653 406.678 60.156C406.566 64.2627 406.473 67.296 406.398 69.256C407.238 69.3307 407.976 69.4707 408.61 69.676L408.554 71.636C407.416 71.9907 406.436 72.168 405.614 72.168C404.793 72.168 404.233 72.1493 403.934 72.112C403.71 71.664 403.524 71.216 403.374 70.768C401.825 71.8133 400.705 72.336 400.014 72.336C396.673 72.336 395.002 70.6467 395.002 67.268C395.002 66.3533 395.077 64.104 395.226 60.52C394.237 60.52 393.332 60.3893 392.51 60.128C392.51 59.6613 392.576 58.9893 392.706 58.112C393.808 57.8133 395.693 57.664 398.362 57.664C398.717 57.664 398.941 57.6733 399.034 57.692C399.034 58.6067 398.876 59.456 398.558 60.24V65.896C398.558 67.0907 398.68 67.968 398.922 68.528C399.184 69.0693 399.725 69.34 400.546 69.34C401.386 69.34 402.245 69.0507 403.122 68.472L402.954 60.52C402.133 60.4827 401.358 60.352 400.63 60.128C400.63 59.6613 400.696 58.9893 400.826 58.112C401.928 57.8133 403.813 57.664 406.482 57.664ZM413.139 72.336L412.523 72.308C412.411 72.1027 412.261 71.72 412.075 71.16C411.888 70.6 411.785 70.18 411.767 69.9C411.673 68.052 411.571 64.8507 411.459 60.296H409.499L409.583 58.7C410.012 58.4013 410.525 58.1307 411.123 57.888L413.391 54.304C414.119 54.3787 414.688 54.5747 415.099 54.892L415.071 57.552C416.247 57.5893 417.339 57.7013 418.347 57.888C418.347 58.6347 418.113 59.4373 417.647 60.296H415.043C414.968 64.216 414.921 67.156 414.903 69.116C415.649 69.1907 416.667 69.4053 417.955 69.76L417.927 71.216C417.609 71.4213 416.9 71.664 415.799 71.944C414.716 72.2053 413.829 72.336 413.139 72.336ZM425.309 57.664C425.664 57.664 425.888 57.6733 425.981 57.692C425.981 58.6067 425.823 59.456 425.505 60.24C425.431 64.272 425.384 67.296 425.365 69.312L427.549 69.564C427.549 70.3293 427.335 71.1413 426.905 72H419.933L419.681 70.46C420.839 70.0307 421.679 69.7507 422.201 69.62L421.893 60.548C420.792 60.436 419.98 60.296 419.457 60.128C419.457 59.6613 419.523 58.9893 419.653 58.112C420.755 57.8133 422.64 57.664 425.309 57.664ZM425.309 52.372C425.477 53.212 425.561 53.856 425.561 54.304C425.561 54.7333 425.524 55.2187 425.449 55.76C424.703 55.928 424.068 56.012 423.545 56.012C423.041 56.012 422.425 55.984 421.697 55.928C421.529 55.088 421.445 54.4533 421.445 54.024C421.445 53.576 421.483 53.0813 421.557 52.54C422.304 52.372 422.929 52.288 423.433 52.288C423.956 52.288 424.581 52.316 425.309 52.372ZM435.49 59.68C434.818 59.68 434.053 59.848 433.194 60.184C432.952 60.5573 432.718 61.22 432.494 62.172C432.289 63.1053 432.186 64.048 432.186 65C432.186 66.7547 432.448 68.0053 432.97 68.752C433.493 69.48 434.333 69.844 435.49 69.844C436.666 69.844 437.516 69.48 438.038 68.752C438.561 68.0053 438.822 66.736 438.822 64.944C438.822 63.1333 438.552 61.808 438.01 60.968C437.488 60.1093 436.648 59.68 435.49 59.68ZM435.49 57.44C437.674 57.44 439.429 58.112 440.754 59.456C442.098 60.7813 442.77 62.6387 442.77 65.028C442.77 67.3987 442.108 69.2093 440.782 70.46C439.457 71.7107 437.693 72.336 435.49 72.336C433.288 72.336 431.524 71.7107 430.198 70.46C428.892 69.2093 428.238 67.3987 428.238 65.028C428.238 62.6387 428.901 60.7813 430.226 59.456C431.552 58.112 433.306 57.44 435.49 57.44ZM452.489 57.44C454.356 57.44 455.709 57.8973 456.549 58.812C457.389 59.7267 457.809 61.0053 457.809 62.648C457.809 64.2907 457.716 66.512 457.529 69.312L459.741 69.564C459.741 70.3293 459.526 71.1413 459.097 72H452.125L451.873 70.46C452.75 70.1053 453.562 69.8253 454.309 69.62C454.253 67.4733 454.197 65.672 454.141 64.216C454.085 62.7413 453.945 61.7427 453.721 61.22C453.497 60.6973 453.002 60.436 452.237 60.436C451.08 60.436 450.044 60.6413 449.129 61.052C449.11 61.8547 449.054 63.1707 448.961 65C448.886 66.8107 448.84 68.248 448.821 69.312L451.005 69.564C451.005 70.3293 450.79 71.1413 450.361 72H443.389L443.137 70.46C444.07 70.1053 444.91 69.8253 445.657 69.62C445.638 68.5 445.573 66.9507 445.461 64.972C445.368 62.9933 445.312 61.528 445.293 60.576C444.602 60.5013 443.865 60.3613 443.081 60.156L443.221 58.14C444.528 57.7853 446.002 57.608 447.645 57.608C447.85 57.7387 448.13 58.14 448.485 58.812C449.12 58.4947 449.894 58.1867 450.809 57.888C451.724 57.5893 452.284 57.44 452.489 57.44Z" fill="#1935DA"/>
</svg>
