<svg width="472" height="64" viewBox="0 0 472 64" fill="none" xmlns="http://www.w3.org/2000/svg">
<rect y="1.98877" width="21.7627" height="61.94" fill="#4C769A"/>
<rect x="23.437" y="1.98877" width="21.7627" height="61.94" fill="#4C769A"/>
<rect x="26.7847" y="5.33691" width="15.0665" height="5.02216" fill="#D9D9D9"/>
<rect x="3.34814" y="5.33691" width="15.0665" height="5.02216" fill="#D9D9D9"/>
<rect x="26.7847" y="55.5586" width="15.0665" height="5.02216" fill="#D9D9D9"/>
<rect x="43.8237" y="13.0928" width="21.7627" height="61.94" transform="rotate(-36.9853 43.8237 13.0928)" fill="#4C769A"/>
<rect x="48.5127" y="13.7534" width="15.0665" height="5.02216" transform="rotate(-36.9853 48.5127 13.7534)" fill="#D9D9D9"/>
<rect x="78.7261" y="53.8691" width="15.0665" height="5.02216" transform="rotate(-36.9853 78.7261 53.8691)" fill="#D9D9D9"/>
<rect x="3.34814" y="55.5586" width="15.0665" height="5.02216" fill="#D9D9D9"/>
<path d="M121.172 30.936L120.056 30.9L119.012 26.58C117.62 26.34 116.576 26.22 115.88 26.22C114.512 26.22 112.976 26.496 111.272 27.048C110.768 27.984 110.372 29.184 110.084 30.648C109.796 32.112 109.652 33.492 109.652 34.788C109.652 41.412 111.56 44.724 115.376 44.724C117.008 44.724 118.304 44.484 119.264 44.004L120.02 39.612C121.532 39.612 122.684 39.696 123.476 39.864C123.86 42.48 124.052 44.604 124.052 46.236C123.476 46.668 122.312 47.148 120.56 47.676C118.832 48.204 117.128 48.468 115.448 48.468C108.296 48.468 104.72 44.052 104.72 35.22C104.72 31.02 105.584 27.828 107.312 25.644C109.064 23.46 111.848 22.368 115.664 22.368C117.56 22.368 119.24 22.644 120.704 23.196C122 23.676 123.104 24.204 124.016 24.78C124.016 26.412 123.836 28.38 123.476 30.684C122.804 30.852 122.036 30.936 121.172 30.936ZM143.954 23.196L143.99 23.556C143.99 24.54 143.834 25.38 143.522 26.076C143.21 26.316 142.718 26.508 142.046 26.652L148.058 44.436L151.478 44.868C151.478 45.852 151.202 46.896 150.65 48H141.902L141.578 46.02C142.586 45.636 143.246 45.384 143.558 45.264L142.118 41.196H134.018C133.298 43.332 132.914 44.448 132.866 44.544L135.35 44.868C135.35 45.372 135.254 45.96 135.062 46.632C134.87 47.28 134.69 47.736 134.522 48H125.774L125.45 46.02C126.53 45.564 127.502 45.228 128.366 45.012L134.414 26.508C132.806 26.268 131.594 25.956 130.778 25.572C130.778 24.876 130.886 24.264 131.102 23.736C131.606 23.568 132.782 23.376 134.63 23.16C136.502 22.92 138.278 22.8 139.958 22.8C141.662 22.8 142.994 22.932 143.954 23.196ZM139.31 33.096L138.266 28.344H137.906L136.754 33.312L135.062 37.812H141.074L139.31 33.096ZM163.259 22.8C166.307 22.8 168.575 23.328 170.063 24.384C171.551 25.44 172.295 27.36 172.295 30.144C172.295 32.472 171.575 34.416 170.135 35.976C168.695 37.512 166.391 38.28 163.223 38.28C162.191 38.28 161.375 38.268 160.775 38.244L160.703 44.58L163.331 44.868C163.331 45.924 163.055 46.968 162.503 48H153.611L153.287 46.02C154.535 45.516 155.543 45.168 156.311 44.976C156.311 44.904 156.203 38.556 155.987 25.932C155.603 25.836 154.607 25.524 152.999 24.996L153.287 22.8H163.259ZM162.467 34.86C164.075 34.836 165.323 34.392 166.211 33.528C167.099 32.664 167.543 31.548 167.543 30.18C167.543 28.812 167.147 27.84 166.355 27.264C165.587 26.664 164.375 26.364 162.719 26.364C162.071 26.364 161.459 26.376 160.883 26.4C160.835 30.192 160.811 33.024 160.811 34.896L162.467 34.86ZM183.174 44.544C185.958 44.544 187.35 43.356 187.35 40.98C187.35 39.972 186.822 39.12 185.766 38.424C184.998 37.896 183.942 37.332 182.598 36.732C181.278 36.108 180.282 35.616 179.61 35.256C178.962 34.896 178.206 34.392 177.342 33.744C175.686 32.472 174.858 30.888 174.858 28.992C174.858 27.096 175.59 25.524 177.054 24.276C178.542 23.004 180.546 22.368 183.066 22.368C185.586 22.368 188.274 23.172 191.13 24.78C191.13 26.508 190.95 28.38 190.59 30.396C189.822 30.636 188.682 30.756 187.17 30.756L186.126 26.472C185.238 26.208 184.266 26.076 183.21 26.076C182.154 26.076 181.338 26.304 180.762 26.76C180.186 27.216 179.898 27.9 179.898 28.812C179.898 29.7 180.342 30.504 181.23 31.224C182.142 31.92 183.234 32.568 184.506 33.168C185.778 33.744 186.654 34.152 187.134 34.392C187.614 34.632 188.226 34.992 188.97 35.472C189.714 35.952 190.278 36.408 190.662 36.84C191.646 37.992 192.138 39.276 192.138 40.692C192.138 43.188 191.31 45.108 189.654 46.452C187.998 47.796 185.838 48.468 183.174 48.468C181.758 48.468 180.198 48.228 178.494 47.748C176.814 47.244 175.386 46.608 174.21 45.84C174.258 44.376 174.45 42.396 174.786 39.9C175.746 39.708 176.898 39.612 178.242 39.612L178.998 43.932C180.318 44.34 181.71 44.544 183.174 44.544ZM194.523 29.352C194.139 27.696 193.947 26.388 193.947 25.428C193.947 24.468 193.983 23.592 194.055 22.8H214.971C215.067 23.952 215.115 24.732 215.115 25.14C215.115 26.172 214.923 27.576 214.539 29.352C213.843 29.544 212.703 29.64 211.119 29.64L210.291 26.004H207.231C207.207 26.916 207.099 33.096 206.907 44.544L209.499 44.868C209.499 45.972 209.223 47.016 208.671 48H199.923L199.599 46.02C201.255 45.396 202.299 45.048 202.731 44.976C202.731 44.88 202.587 38.568 202.299 26.04H198.735L197.943 29.568C196.527 29.568 195.387 29.496 194.523 29.352ZM227.466 44.616C231.45 44.616 233.442 41.556 233.442 35.436C233.442 29.316 231.45 26.256 227.466 26.256C225.738 26.256 224.226 26.52 222.93 27.048C221.826 29.352 221.274 32.028 221.274 35.076C221.274 38.1 221.73 40.452 222.642 42.132C223.554 43.788 225.162 44.616 227.466 44.616ZM227.466 22.368C231.474 22.368 234.294 23.424 235.926 25.536C237.558 27.624 238.374 30.828 238.374 35.148C238.374 37.86 238.026 40.176 237.33 42.096C236.634 44.016 235.458 45.552 233.802 46.704C232.146 47.856 230.034 48.432 227.466 48.432C223.554 48.432 220.71 47.34 218.934 45.156C217.182 42.972 216.306 39.792 216.306 35.616C216.306 26.784 220.026 22.368 227.466 22.368ZM264.455 26.004L264.347 48H259.739L247.859 28.632C247.763 35.664 247.703 40.968 247.679 44.544L250.163 44.868C250.163 45.852 249.887 46.896 249.335 48H240.587L240.263 46.02C241.607 45.468 242.615 45.12 243.287 44.976C243.287 44.904 243.179 38.556 242.963 25.932L239.975 24.996L240.263 22.8H249.623L260.099 41.592L259.559 25.932L256.571 24.996L256.859 22.8H266.219C266.195 22.8 266.195 22.824 266.219 22.872C266.267 22.92 266.315 23.028 266.363 23.196C266.435 23.34 266.507 23.52 266.579 23.736C266.723 24.12 266.819 24.756 266.867 25.644C265.643 25.836 264.839 25.956 264.455 26.004ZM276.124 26.4C276.124 29.136 276.1 31.488 276.052 33.456H279.724L280.084 30.972C281.308 30.972 282.496 31.272 283.648 31.872V39.072L281.272 39.18C280.696 38.316 280.36 37.56 280.264 36.912H276.016C275.968 40.272 275.944 42.804 275.944 44.508H282.1L282.892 41.376C284.38 41.376 285.508 41.448 286.276 41.592C286.636 42.96 286.816 44.208 286.816 45.336C286.816 46.44 286.78 47.328 286.708 48H268.852L268.528 46.02C270.088 45.42 271.096 45.072 271.552 44.976C271.528 43.56 271.504 41.568 271.48 39C271.384 33.24 271.3 28.884 271.228 25.932L268.24 24.996L268.528 22.8H286.204C286.276 23.448 286.312 24.264 286.312 25.248C286.312 26.208 286.132 27.552 285.772 29.28C285.028 29.52 283.9 29.64 282.388 29.64L281.56 26.4H276.124ZM316.606 23.196L316.642 23.556C316.642 24.54 316.486 25.38 316.174 26.076C315.862 26.316 315.37 26.508 314.698 26.652L320.71 44.436L324.13 44.868C324.13 45.852 323.854 46.896 323.302 48H314.554L314.23 46.02C315.238 45.636 315.898 45.384 316.21 45.264L314.77 41.196H306.67C305.95 43.332 305.566 44.448 305.518 44.544L308.002 44.868C308.002 45.372 307.906 45.96 307.714 46.632C307.522 47.28 307.342 47.736 307.174 48H298.426L298.102 46.02C299.182 45.564 300.154 45.228 301.018 45.012L307.066 26.508C305.458 26.268 304.246 25.956 303.43 25.572C303.43 24.876 303.538 24.264 303.754 23.736C304.258 23.568 305.434 23.376 307.282 23.16C309.154 22.92 310.93 22.8 312.61 22.8C314.314 22.8 315.646 22.932 316.606 23.196ZM311.962 33.096L310.918 28.344H310.558L309.406 33.312L307.714 37.812H313.726L311.962 33.096ZM334.651 22.8C338.851 22.8 341.635 23.4 343.003 24.6C344.251 25.68 344.875 27.348 344.875 29.604C344.875 33.108 343.051 35.496 339.403 36.768L344.587 44.58L347.683 44.904C347.683 45.936 347.407 46.968 346.855 48H341.635L334.579 37.236H333.427L333.319 44.58L335.947 44.868C335.947 45.852 335.671 46.896 335.119 48H326.227L325.903 46.02C327.343 45.444 328.351 45.096 328.927 44.976C328.879 42.024 328.819 38.46 328.747 34.284C328.675 30.108 328.627 27.312 328.603 25.896L325.615 24.996C325.639 24.444 325.747 23.712 325.939 22.8H334.651ZM337.495 26.652C336.751 26.484 335.755 26.4 334.507 26.4H333.499C333.451 29.712 333.427 32.196 333.427 33.852L335.191 33.816C336.607 33.792 337.723 33.504 338.539 32.952C339.379 32.376 339.799 31.272 339.799 29.64C339.799 28.008 339.031 27.012 337.495 26.652ZM365.332 30.936L364.216 30.9L363.172 26.58C361.78 26.34 360.736 26.22 360.04 26.22C358.672 26.22 357.136 26.496 355.432 27.048C354.928 27.984 354.532 29.184 354.244 30.648C353.956 32.112 353.812 33.492 353.812 34.788C353.812 41.412 355.72 44.724 359.536 44.724C361.168 44.724 362.464 44.484 363.424 44.004L364.18 39.612C365.692 39.612 366.844 39.696 367.636 39.864C368.02 42.48 368.212 44.604 368.212 46.236C367.636 46.668 366.472 47.148 364.72 47.676C362.992 48.204 361.288 48.468 359.608 48.468C352.456 48.468 348.88 44.052 348.88 35.22C348.88 31.02 349.744 27.828 351.472 25.644C353.224 23.46 356.008 22.368 359.824 22.368C361.72 22.368 363.4 22.644 364.864 23.196C366.16 23.676 367.264 24.204 368.176 24.78C368.176 26.412 367.996 28.38 367.636 30.684C366.964 30.852 366.196 30.936 365.332 30.936ZM387.862 44.976L387.718 36.48H378.286C378.238 40.08 378.214 42.768 378.214 44.544L380.698 44.868C380.698 45.852 380.422 46.896 379.87 48H371.122L370.798 46.02C372.142 45.468 373.15 45.12 373.822 44.976C373.822 44.904 373.714 38.556 373.498 25.932L370.51 24.996L370.798 22.8H380.122C380.506 23.448 380.734 24.396 380.806 25.644C379.582 25.836 378.778 25.956 378.394 26.004C378.346 29.124 378.322 31.464 378.322 33.024H387.646L387.538 25.932L384.55 24.996L384.838 22.8H394.162C394.546 23.448 394.774 24.396 394.846 25.644C393.622 25.836 392.818 25.956 392.434 26.004L392.254 44.544L394.738 44.868C394.738 45.852 394.462 46.896 393.91 48H385.162L384.838 46.02C386.182 45.468 387.19 45.12 387.862 44.976ZM407.847 22.8C407.823 22.8 407.823 22.824 407.847 22.872C407.895 22.92 407.943 23.028 407.991 23.196C408.063 23.34 408.135 23.52 408.207 23.736C408.351 24.12 408.447 24.756 408.495 25.644C407.271 25.836 406.467 25.956 406.083 26.004L405.903 44.544L408.387 44.868C408.387 45.852 408.111 46.896 407.559 48H398.811L398.487 46.02C399.831 45.468 400.839 45.12 401.511 44.976C401.487 43.56 401.451 41.568 401.403 39C401.331 33.24 401.259 28.884 401.187 25.932L398.199 24.996L398.487 22.8H407.847ZM423.323 41.268C423.755 39.78 425.363 34.68 428.147 25.968L424.943 24.996L425.231 22.8H434.555C434.987 23.664 435.215 24.612 435.239 25.644L433.007 25.968L425.843 48H421.055L413.315 25.968L410.111 24.996L410.399 22.8H419.723C420.155 23.664 420.383 24.612 420.407 25.644C419.375 25.812 418.667 25.92 418.283 25.968L423.323 41.268ZM445.155 26.4C445.155 29.136 445.131 31.488 445.083 33.456H448.755L449.115 30.972C450.339 30.972 451.527 31.272 452.679 31.872V39.072L450.303 39.18C449.727 38.316 449.391 37.56 449.295 36.912H445.047C444.999 40.272 444.975 42.804 444.975 44.508H451.131L451.923 41.376C453.411 41.376 454.539 41.448 455.307 41.592C455.667 42.96 455.847 44.208 455.847 45.336C455.847 46.44 455.811 47.328 455.739 48H437.883L437.559 46.02C439.119 45.42 440.127 45.072 440.583 44.976C440.559 43.56 440.535 41.568 440.511 39C440.415 33.24 440.331 28.884 440.259 25.932L437.271 24.996L437.559 22.8H455.235C455.307 23.448 455.343 24.264 455.343 25.248C455.343 26.208 455.163 27.552 454.803 29.28C454.059 29.52 452.931 29.64 451.419 29.64L450.591 26.4H445.155Z" fill="#4C769A"/>
</svg>
